<svg width="850" height="425" viewBox="0 0 850 425" fill="none" xmlns="http://www.w3.org/2000/svg">
<path d="M481.9 215.4C480.167 215.4 478.667 214.8 477.4 213.6C476.133 212.4 475.5 210.767 475.5 208.7C475.5 206.633 476.133 205 477.4 203.8C478.667 202.6 480.167 202 481.9 202C483.7 202 485.2 202.6 486.4 203.8C487.667 205 488.3 206.633 488.3 208.7C488.3 210.767 487.667 212.4 486.4 213.6C485.2 214.8 483.7 215.4 481.9 215.4ZM479.8 229.5H466.4V222.6H488V251.1C488 255.7 488.633 258.8 489.9 260.4C491.167 261.933 493.067 262.7 495.6 262.7C497.533 262.7 499.3 262.467 500.9 262C502.567 261.533 503.867 261.033 504.8 260.5L506 267.5C505.6 267.7 505.033 267.967 504.3 268.3C503.567 268.567 502.7 268.833 501.7 269.1C500.767 269.367 499.7 269.6 498.5 269.8C497.367 270 496.167 270.1 494.9 270.1C491.967 270.1 489.533 269.7 487.6 268.9C485.667 268.1 484.1 266.9 482.9 265.3C481.767 263.7 480.967 261.733 480.5 259.4C480.033 257 479.8 254.233 479.8 251.1V229.5ZM518.1 223.9C521.1 223.167 524.067 222.6 527 222.2C530 221.8 532.8 221.6 535.4 221.6C541.6 221.6 546.267 223.2 549.4 226.4C552.6 229.6 554.2 234.733 554.2 241.8V269H546V243.3C546 240.3 545.733 237.867 545.2 236C544.667 234.133 543.9 232.7 542.9 231.7C541.967 230.633 540.8 229.9 539.4 229.5C538.067 229.1 536.6 228.9 535 228.9C533.667 228.9 532.233 229 530.7 229.2C529.233 229.333 527.8 229.533 526.4 229.8V269H518.1V223.9ZM576.4 224.3C577.4 223.7 578.833 223.1 580.7 222.5C582.633 221.833 584.767 221.5 587.1 221.5C590.233 221.5 593.033 222.1 595.5 223.3C597.967 224.5 600.033 226.167 601.7 228.3C603.433 230.433 604.733 233 605.6 236C606.533 238.933 607 242.2 607 245.8C607 249.533 606.467 252.9 605.4 255.9C604.333 258.9 602.833 261.467 600.9 263.6C598.967 265.667 596.633 267.267 593.9 268.4C591.167 269.533 588.133 270.1 584.8 270.1C581.133 270.1 577.867 269.833 575 269.3C572.133 268.767 569.833 268.233 568.1 267.7V201.1L576.4 199.7V224.3ZM576.4 261.8C577.667 262.133 578.933 262.4 580.2 262.6C581.467 262.733 582.667 262.8 583.8 262.8C588.4 262.8 592 261.4 594.6 258.6C597.2 255.733 598.5 251.467 598.5 245.8C598.5 243.4 598.267 241.167 597.8 239.1C597.333 236.967 596.6 235.167 595.6 233.7C594.6 232.167 593.3 230.967 591.7 230.1C590.167 229.233 588.3 228.8 586.1 228.8C584.167 228.8 582.3 229.2 580.5 230C578.7 230.733 577.333 231.533 576.4 232.4V261.8ZM657 245.8C657 249.467 656.467 252.8 655.4 255.8C654.4 258.733 652.967 261.267 651.1 263.4C649.233 265.533 647 267.2 644.4 268.4C641.8 269.533 638.967 270.1 635.9 270.1C632.9 270.1 630.1 269.533 627.5 268.4C624.967 267.2 622.767 265.533 620.9 263.4C619.033 261.267 617.567 258.733 616.5 255.8C615.5 252.8 615 249.467 615 245.8C615 242.133 615.5 238.8 616.5 235.8C617.567 232.8 619.033 230.267 620.9 228.2C622.767 226.067 624.967 224.433 627.5 223.3C630.1 222.1 632.9 221.5 635.9 221.5C638.967 221.5 641.8 222.1 644.4 223.3C647 224.433 649.233 226.067 651.1 228.2C652.967 230.267 654.4 232.8 655.4 235.8C656.467 238.8 657 242.133 657 245.8ZM648.5 245.8C648.5 240.533 647.367 236.4 645.1 233.4C642.833 230.333 639.767 228.8 635.9 228.8C632.1 228.8 629.067 230.333 626.8 233.4C624.6 236.4 623.5 240.533 623.5 245.8C623.5 251 624.6 255.133 626.8 258.2C629.067 261.2 632.1 262.7 635.9 262.7C639.767 262.7 642.833 261.2 645.1 258.2C647.367 255.133 648.5 251 648.5 245.8ZM686.5 263.1C688.567 263.1 690.4 263.033 692 262.9C693.667 262.767 695.033 262.6 696.1 262.4V248.6C695.033 248.267 693.733 248 692.2 247.8C690.733 247.6 689.167 247.5 687.5 247.5C685.967 247.5 684.467 247.633 683 247.9C681.533 248.1 680.233 248.5 679.1 249.1C677.967 249.7 677.033 250.5 676.3 251.5C675.567 252.433 675.2 253.633 675.2 255.1C675.2 258.1 676.2 260.2 678.2 261.4C680.267 262.533 683.033 263.1 686.5 263.1ZM685.7 221.5C689.167 221.5 692.067 221.933 694.4 222.8C696.8 223.667 698.733 224.867 700.2 226.4C701.667 227.933 702.7 229.8 703.3 232C703.9 234.2 704.2 236.6 704.2 239.2V268.2C702.267 268.533 699.7 268.933 696.5 269.4C693.367 269.867 690.133 270.1 686.8 270.1C684.267 270.1 681.8 269.867 679.4 269.4C677 269 674.867 268.267 673 267.2C671.133 266.067 669.633 264.533 668.5 262.6C667.367 260.667 666.8 258.2 666.8 255.2C666.8 252.533 667.367 250.3 668.5 248.5C669.7 246.633 671.2 245.133 673 244C674.867 242.867 676.967 242.067 679.3 241.6C681.7 241.067 684.1 240.8 686.5 240.8C689.767 240.8 692.967 241.167 696.1 241.9V239.6C696.1 238.2 695.933 236.867 695.6 235.6C695.333 234.267 694.767 233.067 693.9 232C693.1 230.933 691.967 230.1 690.5 229.5C689.1 228.833 687.267 228.5 685 228.5C682.133 228.5 679.633 228.7 677.5 229.1C675.367 229.5 673.733 229.9 672.6 230.3L671.6 223.5C672.733 222.967 674.6 222.5 677.2 222.1C679.867 221.7 682.7 221.5 685.7 221.5ZM721.7 269V225.1C728.5 222.767 735.367 221.6 742.3 221.6C744.433 221.6 746.467 221.7 748.4 221.9C750.333 222.033 752.467 222.367 754.8 222.9L753.3 230.2C751.167 229.6 749.267 229.233 747.6 229.1C746 228.9 744.233 228.8 742.3 228.8C738.233 228.8 734.1 229.367 729.9 230.5V269H721.7ZM795.6 232.4C794.667 231.533 793.3 230.733 791.5 230C789.7 229.2 787.833 228.8 785.9 228.8C783.7 228.8 781.8 229.233 780.2 230.1C778.667 230.967 777.4 232.167 776.4 233.7C775.4 235.167 774.667 236.967 774.2 239.1C773.733 241.167 773.5 243.4 773.5 245.8C773.5 251.2 774.767 255.367 777.3 258.3C779.833 261.233 783.133 262.7 787.2 262.7C789.267 262.7 791 262.6 792.4 262.4C793.867 262.2 794.933 262 795.6 261.8V232.4ZM795.6 201.1L803.9 199.7V267.7C802.1 268.233 799.8 268.767 797 269.3C794.2 269.833 790.933 270.1 787.2 270.1C783.867 270.1 780.833 269.533 778.1 268.4C775.367 267.267 773.033 265.667 771.1 263.6C769.167 261.467 767.667 258.9 766.6 255.9C765.533 252.9 765 249.533 765 245.8C765 242.2 765.433 238.933 766.3 236C767.233 233 768.567 230.433 770.3 228.3C772.033 226.167 774.1 224.5 776.5 223.3C778.967 222.1 781.767 221.5 784.9 221.5C787.367 221.5 789.533 221.8 791.4 222.4C793.267 223 794.667 223.633 795.6 224.3V201.1Z" fill="#2496ED"/>
<path d="M477.4 213.6L476.368 214.689L477.4 213.6ZM477.4 203.8L476.368 202.711L477.4 203.8ZM486.4 203.8L485.339 204.861L485.354 204.875L485.368 204.889L486.4 203.8ZM486.4 213.6L485.368 212.511L485.354 212.525L485.339 212.539L486.4 213.6ZM479.8 229.5H481.3V228H479.8V229.5ZM466.4 229.5H464.9V231H466.4V229.5ZM466.4 222.6V221.1H464.9V222.6H466.4ZM488 222.6H489.5V221.1H488V222.6ZM489.9 260.4L488.724 261.331L488.734 261.343L488.744 261.355L489.9 260.4ZM500.9 262L500.496 260.556L500.488 260.558L500.48 260.56L500.9 262ZM504.8 260.5L506.278 260.247L505.916 258.134L504.056 259.198L504.8 260.5ZM506 267.5L506.671 268.842L507.667 268.344L507.478 267.247L506 267.5ZM504.3 268.3L504.813 269.71L504.868 269.69L504.921 269.666L504.3 268.3ZM501.7 269.1L501.314 267.651L501.301 267.654L501.288 267.658L501.7 269.1ZM498.5 269.8L498.253 268.32L498.246 268.322L498.239 268.323L498.5 269.8ZM487.6 268.9L487.026 270.286L487.6 268.9ZM482.9 265.3L481.676 266.167L481.688 266.184L481.7 266.2L482.9 265.3ZM480.5 259.4L479.028 259.686L479.029 259.694L480.5 259.4ZM481.9 213.9C480.553 213.9 479.422 213.449 478.432 212.511L476.368 214.689C477.912 216.151 479.78 216.9 481.9 216.9V213.9ZM478.432 212.511C477.519 211.646 477 210.437 477 208.7H474C474 211.096 474.748 213.154 476.368 214.689L478.432 212.511ZM477 208.7C477 206.963 477.519 205.754 478.432 204.889L476.368 202.711C474.748 204.246 474 206.304 474 208.7H477ZM478.432 204.889C479.422 203.951 480.553 203.5 481.9 203.5V200.5C479.78 200.5 477.912 201.249 476.368 202.711L478.432 204.889ZM481.9 203.5C483.329 203.5 484.439 203.96 485.339 204.861L487.461 202.739C485.961 201.24 484.071 200.5 481.9 200.5V203.5ZM485.368 204.889C486.281 205.754 486.8 206.963 486.8 208.7H489.8C489.8 206.304 489.052 204.246 487.432 202.711L485.368 204.889ZM486.8 208.7C486.8 210.437 486.281 211.646 485.368 212.511L487.432 214.689C489.052 213.154 489.8 211.096 489.8 208.7H486.8ZM485.339 212.539C484.439 213.44 483.329 213.9 481.9 213.9V216.9C484.071 216.9 485.961 216.16 487.461 214.661L485.339 212.539ZM479.8 228H466.4V231H479.8V228ZM467.9 229.5V222.6H464.9V229.5H467.9ZM466.4 224.1H488V221.1H466.4V224.1ZM486.5 222.6V251.1H489.5V222.6H486.5ZM486.5 251.1C486.5 253.46 486.662 255.493 487.005 257.175C487.346 258.841 487.886 260.273 488.724 261.331L491.076 259.469C490.647 258.927 490.238 258.009 489.945 256.575C489.655 255.157 489.5 253.34 489.5 251.1H486.5ZM488.744 261.355C490.37 263.324 492.752 264.2 495.6 264.2V261.2C493.381 261.2 491.963 260.542 491.056 259.445L488.744 261.355ZM495.6 264.2C497.653 264.2 499.564 263.952 501.32 263.44L500.48 260.56C499.036 260.981 497.413 261.2 495.6 261.2V264.2ZM501.304 263.444C503.027 262.962 504.459 262.422 505.544 261.802L504.056 259.198C503.274 259.644 502.106 260.105 500.496 260.556L501.304 263.444ZM503.322 260.753L504.522 267.753L507.478 267.247L506.278 260.247L503.322 260.753ZM505.329 266.158C504.954 266.346 504.407 266.604 503.679 266.934L504.921 269.666C505.66 269.33 506.246 269.054 506.671 268.842L505.329 266.158ZM503.787 266.89C503.106 267.138 502.284 267.392 501.314 267.651L502.086 270.549C503.116 270.275 504.027 269.995 504.813 269.71L503.787 266.89ZM501.288 267.658C500.421 267.906 499.411 268.127 498.253 268.32L498.747 271.28C499.989 271.073 501.113 270.828 502.112 270.542L501.288 267.658ZM498.239 268.323C497.2 268.506 496.088 268.6 494.9 268.6V271.6C496.245 271.6 497.533 271.494 498.761 271.277L498.239 268.323ZM494.9 268.6C492.09 268.6 489.868 268.215 488.174 267.514L487.026 270.286C489.199 271.185 491.843 271.6 494.9 271.6V268.6ZM488.174 267.514C486.477 266.812 485.131 265.775 484.1 264.4L481.7 266.2C483.069 268.025 484.856 269.388 487.026 270.286L488.174 267.514ZM484.124 264.433C483.135 263.037 482.405 261.276 481.971 259.106L479.029 259.694C479.528 262.191 480.398 264.363 481.676 266.167L484.124 264.433ZM481.972 259.114C481.528 256.83 481.3 254.163 481.3 251.1H478.3C478.3 254.304 478.538 257.17 479.028 259.686L481.972 259.114ZM481.3 251.1V229.5H478.3V251.1H481.3ZM518.1 223.9L517.744 222.443L516.6 222.722V223.9H518.1ZM527 222.2L526.802 220.713L526.797 220.714L527 222.2ZM549.4 226.4L548.328 227.449L548.334 227.455L548.339 227.461L549.4 226.4ZM554.2 269V270.5H555.7V269H554.2ZM546 269H544.5V270.5H546V269ZM545.2 236L543.758 236.412L545.2 236ZM542.9 231.7L541.771 232.688L541.804 232.725L541.839 232.761L542.9 231.7ZM539.4 229.5L538.969 230.937L538.978 230.94L538.988 230.942L539.4 229.5ZM530.7 229.2L530.836 230.694L530.865 230.691L530.894 230.687L530.7 229.2ZM526.4 229.8L526.119 228.326L524.9 228.559V229.8H526.4ZM526.4 269V270.5H527.9V269H526.4ZM518.1 269H516.6V270.5H518.1V269ZM518.456 225.357C521.408 224.636 524.323 224.079 527.203 223.686L526.797 220.714C523.81 221.121 520.792 221.698 517.744 222.443L518.456 225.357ZM527.198 223.687C530.143 223.294 532.876 223.1 535.4 223.1V220.1C532.724 220.1 529.857 220.306 526.802 220.713L527.198 223.687ZM535.4 223.1C541.355 223.1 545.571 224.634 548.328 227.449L550.472 225.351C546.962 221.766 541.845 220.1 535.4 220.1V223.1ZM548.339 227.461C551.135 230.256 552.7 234.914 552.7 241.8H555.7C555.7 234.553 554.065 228.944 550.461 225.339L548.339 227.461ZM552.7 241.8V269H555.7V241.8H552.7ZM554.2 267.5H546V270.5H554.2V267.5ZM547.5 269V243.3H544.5V269H547.5ZM547.5 243.3C547.5 240.228 547.229 237.641 546.642 235.588L543.758 236.412C544.238 238.093 544.5 240.372 544.5 243.3H547.5ZM546.642 235.588C546.064 233.563 545.196 231.874 543.961 230.639L541.839 232.761C542.604 233.526 543.27 234.703 543.758 236.412L546.642 235.588ZM544.029 230.712C542.9 229.422 541.482 228.535 539.812 228.058L538.988 230.942C540.118 231.265 541.033 231.845 541.771 232.688L544.029 230.712ZM539.831 228.063C538.339 227.616 536.725 227.4 535 227.4V230.4C536.475 230.4 537.795 230.584 538.969 230.937L539.831 228.063ZM535 227.4C533.593 227.4 532.094 227.506 530.506 227.713L530.894 230.687C532.373 230.494 533.741 230.4 535 230.4V227.4ZM530.564 227.706C529.051 227.844 527.569 228.05 526.119 228.326L526.681 231.274C528.031 231.016 529.416 230.823 530.836 230.694L530.564 227.706ZM524.9 229.8V269H527.9V229.8H524.9ZM526.4 267.5H518.1V270.5H526.4V267.5ZM519.6 269V223.9H516.6V269H519.6ZM576.4 224.3H574.9V226.949L577.172 225.586L576.4 224.3ZM580.7 222.5L581.159 223.928L581.174 223.923L581.189 223.918L580.7 222.5ZM601.7 228.3L600.518 229.223L600.527 229.235L600.536 229.246L601.7 228.3ZM605.6 236L604.159 236.416L604.165 236.436L604.171 236.455L605.6 236ZM605.4 255.9L606.813 256.403L605.4 255.9ZM600.9 263.6L601.995 264.625L602.004 264.616L602.011 264.607L600.9 263.6ZM593.9 268.4L594.475 269.786L593.9 268.4ZM575 269.3L574.726 270.775L575 269.3ZM568.1 267.7H566.6V268.808L567.659 269.134L568.1 267.7ZM568.1 201.1L567.851 199.621L566.6 199.832V201.1H568.1ZM576.4 199.7H577.9V197.926L576.151 198.221L576.4 199.7ZM576.4 261.8H574.9V262.956L576.018 263.251L576.4 261.8ZM580.2 262.6L579.966 264.082L580.004 264.088L580.043 264.092L580.2 262.6ZM594.6 258.6L595.699 259.621L595.705 259.614L595.711 259.608L594.6 258.6ZM597.8 239.1L596.335 239.421L596.337 239.43L597.8 239.1ZM595.6 233.7L594.344 234.519L594.352 234.532L594.361 234.545L595.6 233.7ZM591.7 230.1L590.962 231.406L590.974 231.412L590.986 231.419L591.7 230.1ZM580.5 230L581.066 231.389L581.088 231.38L581.109 231.371L580.5 230ZM576.4 232.4L575.379 231.301L574.9 231.746V232.4H576.4ZM577.172 225.586C578.029 225.072 579.338 224.513 581.159 223.928L580.241 221.072C578.328 221.687 576.771 222.328 575.628 223.014L577.172 225.586ZM581.189 223.918C582.945 223.313 584.91 223 587.1 223V220C584.623 220 582.322 220.354 580.211 221.082L581.189 223.918ZM587.1 223C590.038 223 592.609 223.562 594.844 224.649L596.156 221.951C593.458 220.638 590.428 220 587.1 220V223ZM594.844 224.649C597.108 225.75 598.994 227.273 600.518 229.223L602.882 227.377C601.073 225.061 598.825 223.25 596.156 221.951L594.844 224.649ZM600.536 229.246C602.126 231.203 603.341 233.583 604.159 236.416L607.041 235.584C606.126 232.417 604.741 229.663 602.864 227.354L600.536 229.246ZM604.171 236.455C605.05 239.219 605.5 242.329 605.5 245.8H608.5C608.5 242.071 608.017 238.648 607.029 235.545L604.171 236.455ZM605.5 245.8C605.5 249.391 604.987 252.584 603.987 255.397L606.813 256.403C607.946 253.216 608.5 249.676 608.5 245.8H605.5ZM603.987 255.397C602.979 258.231 601.576 260.621 599.789 262.593L602.011 264.607C604.091 262.312 605.687 259.569 606.813 256.403L603.987 255.397ZM599.805 262.575C598.024 264.479 595.871 265.959 593.325 267.014L594.475 269.786C597.396 268.574 599.909 266.855 601.995 264.625L599.805 262.575ZM593.325 267.014C590.796 268.063 587.961 268.6 584.8 268.6V271.6C588.306 271.6 591.537 271.003 594.475 269.786L593.325 267.014ZM584.8 268.6C581.203 268.6 578.031 268.338 575.274 267.825L574.726 270.775C577.702 271.329 581.064 271.6 584.8 271.6V268.6ZM575.274 267.825C572.435 267.297 570.197 266.776 568.541 266.266L567.659 269.134C569.47 269.691 571.832 270.236 574.726 270.775L575.274 267.825ZM569.6 267.7V201.1H566.6V267.7H569.6ZM568.349 202.579L576.649 201.179L576.151 198.221L567.851 199.621L568.349 202.579ZM574.9 199.7V224.3H577.9V199.7H574.9ZM576.018 263.251C577.333 263.596 578.649 263.874 579.966 264.082L580.434 261.118C579.218 260.926 578.001 260.67 576.782 260.349L576.018 263.251ZM580.043 264.092C581.356 264.23 582.608 264.3 583.8 264.3V261.3C582.725 261.3 581.578 261.237 580.357 261.108L580.043 264.092ZM583.8 264.3C588.725 264.3 592.758 262.788 595.699 259.621L593.501 257.579C591.242 260.012 588.075 261.3 583.8 261.3V264.3ZM595.711 259.608C598.656 256.361 600 251.669 600 245.8H597C597 251.264 595.744 255.106 593.489 257.592L595.711 259.608ZM600 245.8C600 243.303 599.757 240.958 599.263 238.77L596.337 239.43C596.776 241.375 597 243.497 597 245.8H600ZM599.265 238.779C598.767 236.5 597.969 234.512 596.839 232.855L594.361 234.545C595.231 235.821 595.9 237.433 596.335 239.421L599.265 238.779ZM596.856 232.881C595.721 231.14 594.235 229.767 592.414 228.781L590.986 231.419C592.365 232.166 593.479 233.194 594.344 234.519L596.856 232.881ZM592.438 228.794C590.63 227.772 588.495 227.3 586.1 227.3V230.3C588.105 230.3 589.703 230.694 590.962 231.406L592.438 228.794ZM586.1 227.3C583.953 227.3 581.879 227.746 579.891 228.629L581.109 231.371C582.721 230.654 584.381 230.3 586.1 230.3V227.3ZM579.934 228.611C578.045 229.38 576.496 230.264 575.379 231.301L577.421 233.499C578.17 232.803 579.355 232.086 581.066 231.389L579.934 228.611ZM574.9 232.4V261.8H577.9V232.4H574.9ZM655.4 255.8L653.987 255.297L653.983 255.307L653.98 255.316L655.4 255.8ZM651.1 263.4L652.229 264.388L651.1 263.4ZM644.4 268.4L644.999 269.775L645.014 269.769L645.029 269.762L644.4 268.4ZM627.5 268.4L626.858 269.756L626.879 269.766L626.901 269.775L627.5 268.4ZM620.9 263.4L622.029 262.412L620.9 263.4ZM616.5 255.8L615.077 256.274L615.083 256.294L615.09 256.313L616.5 255.8ZM616.5 235.8L615.087 235.297L615.082 235.312L615.077 235.326L616.5 235.8ZM620.9 228.2L622.013 229.205L622.021 229.197L622.029 229.188L620.9 228.2ZM627.5 223.3L628.113 224.669L628.121 224.666L628.129 224.662L627.5 223.3ZM644.4 223.3L643.771 224.662L643.786 224.669L643.801 224.675L644.4 223.3ZM651.1 228.2L649.971 229.188L649.979 229.197L649.987 229.205L651.1 228.2ZM655.4 235.8L653.977 236.274L653.982 236.288L653.987 236.303L655.4 235.8ZM645.1 233.4L643.894 234.292L643.898 234.298L643.903 234.304L645.1 233.4ZM626.8 233.4L625.594 232.508L625.59 232.513L626.8 233.4ZM626.8 258.2L625.581 259.074L625.592 259.089L625.603 259.104L626.8 258.2ZM645.1 258.2L646.297 259.104L646.302 259.098L646.306 259.092L645.1 258.2ZM655.5 245.8C655.5 249.321 654.988 252.481 653.987 255.297L656.813 256.303C657.945 253.119 658.5 249.612 658.5 245.8H655.5ZM653.98 255.316C653.037 258.081 651.697 260.439 649.971 262.412L652.229 264.388C654.236 262.094 655.763 259.385 656.82 256.284L653.98 255.316ZM649.971 262.412C648.245 264.385 646.182 265.925 643.771 267.038L645.029 269.762C647.818 268.475 650.222 266.681 652.229 264.388L649.971 262.412ZM643.801 267.025C641.405 268.069 638.777 268.6 635.9 268.6V271.6C639.156 271.6 642.195 270.997 644.999 269.775L643.801 267.025ZM635.9 268.6C633.094 268.6 630.499 268.071 628.099 267.025L626.901 269.775C629.701 270.996 632.706 271.6 635.9 271.6V268.6ZM628.142 267.044C625.797 265.933 623.762 264.393 622.029 262.412L619.771 264.388C621.772 266.674 624.137 268.467 626.858 269.756L628.142 267.044ZM622.029 262.412C620.296 260.432 618.919 258.064 617.91 255.287L615.09 256.313C616.214 259.403 617.771 262.101 619.771 264.388L622.029 262.412ZM617.923 255.326C616.981 252.501 616.5 249.331 616.5 245.8H613.5C613.5 249.603 614.019 253.099 615.077 256.274L617.923 255.326ZM616.5 245.8C616.5 242.269 616.981 239.099 617.923 236.274L615.077 235.326C614.019 238.501 613.5 241.997 613.5 245.8H616.5ZM617.913 236.303C618.923 233.462 620.296 231.106 622.013 229.205L619.787 227.195C617.77 229.427 616.21 232.138 615.087 235.297L617.913 236.303ZM622.029 229.188C623.756 227.214 625.781 225.712 628.113 224.669L626.887 221.931C624.152 223.154 621.777 224.92 619.771 227.212L622.029 229.188ZM628.129 224.662C630.522 223.557 633.106 223 635.9 223V220C632.694 220 629.678 220.643 626.871 221.938L628.129 224.662ZM635.9 223C638.765 223 641.382 223.559 643.771 224.662L645.029 221.938C642.218 220.641 639.168 220 635.9 220V223ZM643.801 224.675C646.198 225.72 648.25 227.221 649.971 229.188L652.229 227.212C650.216 224.912 647.802 223.147 644.999 221.925L643.801 224.675ZM649.987 229.205C651.697 231.099 653.034 233.444 653.977 236.274L656.823 235.326C655.766 232.156 654.236 229.434 652.213 227.195L649.987 229.205ZM653.987 236.303C654.988 239.119 655.5 242.279 655.5 245.8H658.5C658.5 241.988 657.945 238.481 656.813 235.297L653.987 236.303ZM650 245.8C650 240.335 648.825 235.842 646.297 232.496L643.903 234.304C645.908 236.958 647 240.732 647 245.8H650ZM646.306 232.508C643.752 229.053 640.235 227.3 635.9 227.3V230.3C639.299 230.3 641.915 231.614 643.894 234.292L646.306 232.508ZM635.9 227.3C631.622 227.3 628.142 229.061 625.594 232.508L628.006 234.292C629.991 231.606 632.578 230.3 635.9 230.3V227.3ZM625.59 232.513C623.138 235.857 622 240.343 622 245.8H625C625 240.724 626.062 236.943 628.01 234.287L625.59 232.513ZM622 245.8C622 251.198 623.141 255.673 625.581 259.074L628.019 257.326C626.059 254.594 625 250.802 625 245.8H622ZM625.603 259.104C628.157 262.484 631.636 264.2 635.9 264.2V261.2C632.564 261.2 629.976 259.916 627.997 257.296L625.603 259.104ZM635.9 264.2C640.221 264.2 643.737 262.492 646.297 259.104L643.903 257.296C641.929 259.908 639.312 261.2 635.9 261.2V264.2ZM646.306 259.092C648.822 255.688 650 251.206 650 245.8H647C647 250.794 645.911 254.579 643.894 257.308L646.306 259.092ZM692 262.9L691.88 261.405L691.875 261.405L692 262.9ZM696.1 262.4L696.376 263.874L697.6 263.645V262.4H696.1ZM696.1 248.6H697.6V247.497L696.547 247.168L696.1 248.6ZM692.2 247.8L691.997 249.286L692.006 249.287L692.2 247.8ZM683 247.9L683.203 249.386L683.236 249.382L683.268 249.376L683 247.9ZM679.1 249.1L678.398 247.774L679.1 249.1ZM676.3 251.5L677.479 252.427L677.495 252.407L677.51 252.387L676.3 251.5ZM678.2 261.4L677.428 262.686L677.453 262.701L677.479 262.715L678.2 261.4ZM694.4 222.8L693.878 224.206L693.891 224.211L694.4 222.8ZM703.3 232L701.853 232.395L703.3 232ZM704.2 268.2L704.455 269.678L705.7 269.464V268.2H704.2ZM696.5 269.4L696.284 267.916L696.279 267.916L696.5 269.4ZM679.4 269.4L679.686 267.928L679.667 267.924L679.647 267.92L679.4 269.4ZM673 267.2L672.222 268.482L672.239 268.493L672.256 268.502L673 267.2ZM668.5 262.6L667.206 263.359L668.5 262.6ZM668.5 248.5L667.238 247.689L667.231 247.701L668.5 248.5ZM673 244L672.222 242.718L672.211 242.724L672.201 242.731L673 244ZM679.3 241.6L679.594 243.071L679.61 243.068L679.625 243.064L679.3 241.6ZM696.1 241.9L695.758 243.361L697.6 243.792V241.9H696.1ZM695.6 235.6L694.129 235.894L694.138 235.938L694.149 235.982L695.6 235.6ZM693.9 232L692.7 232.9L692.717 232.923L692.736 232.946L693.9 232ZM690.5 229.5L689.855 230.854L689.893 230.872L689.932 230.888L690.5 229.5ZM672.6 230.3L671.116 230.518L671.381 232.321L673.099 231.714L672.6 230.3ZM671.6 223.5L670.961 222.143L669.954 222.617L670.116 223.718L671.6 223.5ZM677.2 222.1L676.977 220.617L676.972 220.617L677.2 222.1ZM686.5 264.6C688.597 264.6 690.473 264.532 692.125 264.395L691.875 261.405C690.327 261.534 688.536 261.6 686.5 261.6V264.6ZM692.12 264.395C693.814 264.26 695.238 264.088 696.376 263.874L695.824 260.926C694.829 261.112 693.519 261.274 691.88 261.405L692.12 264.395ZM697.6 262.4V248.6H694.6V262.4H697.6ZM696.547 247.168C695.373 246.801 693.983 246.52 692.394 246.313L692.006 249.287C693.483 249.48 694.693 249.732 695.653 250.032L696.547 247.168ZM692.403 246.314C690.861 246.104 689.226 246 687.5 246V249C689.107 249 690.606 249.096 691.997 249.286L692.403 246.314ZM687.5 246C685.879 246 684.289 246.141 682.732 246.424L683.268 249.376C684.644 249.126 686.054 249 687.5 249V246ZM682.797 246.414C681.183 246.634 679.709 247.08 678.398 247.774L679.802 250.426C680.757 249.92 681.884 249.566 683.203 249.386L682.797 246.414ZM678.398 247.774C677.072 248.477 675.962 249.424 675.09 250.613L677.51 252.387C678.104 251.576 678.862 250.923 679.802 250.426L678.398 247.774ZM675.121 250.573C674.134 251.828 673.7 253.378 673.7 255.1H676.7C676.7 253.888 676.999 253.038 677.479 252.427L675.121 250.573ZM673.7 255.1C673.7 258.454 674.846 261.137 677.428 262.686L678.972 260.114C677.554 259.263 676.7 257.746 676.7 255.1H673.7ZM677.479 262.715C679.846 264.014 682.891 264.6 686.5 264.6V261.6C683.175 261.6 680.687 261.053 678.921 260.085L677.479 262.715ZM685.7 223C689.053 223 691.763 223.421 693.878 224.206L694.922 221.394C692.37 220.446 689.28 220 685.7 220V223ZM693.891 224.211C696.116 225.015 697.839 226.101 699.116 227.437L701.284 225.363C699.628 223.632 697.484 222.319 694.909 221.389L693.891 224.211ZM699.116 227.437C700.397 228.776 701.314 230.417 701.853 232.395L704.747 231.605C704.086 229.183 702.936 227.09 701.284 225.363L699.116 227.437ZM701.853 232.395C702.413 234.45 702.7 236.715 702.7 239.2H705.7C705.7 236.485 705.387 233.95 704.747 231.605L701.853 232.395ZM702.7 239.2V268.2H705.7V239.2H702.7ZM703.945 266.722C702.03 267.052 699.478 267.45 696.284 267.916L696.716 270.884C699.922 270.417 702.503 270.015 704.455 269.678L703.945 266.722ZM696.279 267.916C693.223 268.372 690.063 268.6 686.8 268.6V271.6C690.203 271.6 693.511 271.362 696.721 270.884L696.279 267.916ZM686.8 268.6C684.359 268.6 681.989 268.375 679.686 267.928L679.114 270.872C681.611 271.358 684.174 271.6 686.8 271.6V268.6ZM679.647 267.92C677.399 267.546 675.438 266.865 673.744 265.898L672.256 268.502C674.295 269.668 676.601 270.454 679.153 270.88L679.647 267.92ZM673.778 265.918C672.13 264.917 670.805 263.566 669.794 261.841L667.206 263.359C668.462 265.501 670.137 267.216 672.222 268.482L673.778 265.918ZM669.794 261.841C668.834 260.203 668.3 258.021 668.3 255.2H665.3C665.3 258.379 665.9 261.13 667.206 263.359L669.794 261.841ZM668.3 255.2C668.3 252.745 668.821 250.806 669.769 249.299L667.231 247.701C665.913 249.794 665.3 252.322 665.3 255.2H668.3ZM669.762 249.311C670.848 247.621 672.193 246.281 673.799 245.269L672.201 242.731C670.207 243.986 668.552 245.646 667.238 247.689L669.762 249.311ZM673.778 245.282C675.483 244.247 677.417 243.506 679.594 243.071L679.006 240.129C676.517 240.627 674.25 241.486 672.222 242.718L673.778 245.282ZM679.625 243.064C681.921 242.554 684.212 242.3 686.5 242.3V239.3C683.988 239.3 681.479 239.579 678.975 240.136L679.625 243.064ZM686.5 242.3C689.653 242.3 692.739 242.654 695.758 243.361L696.442 240.439C693.195 239.68 689.88 239.3 686.5 239.3V242.3ZM697.6 241.9V239.6H694.6V241.9H697.6ZM697.6 239.6C697.6 238.08 697.419 236.618 697.051 235.218L694.149 235.982C694.448 237.116 694.6 238.32 694.6 239.6H697.6ZM697.071 235.306C696.756 233.731 696.083 232.308 695.064 231.054L692.736 232.946C693.451 233.826 693.911 234.802 694.129 235.894L697.071 235.306ZM695.1 231.1C694.109 229.779 692.738 228.795 691.068 228.112L689.932 230.888C691.195 231.405 692.091 232.088 692.7 232.9L695.1 231.1ZM691.145 228.146C689.472 227.349 687.395 227 685 227V230C687.138 230 688.728 230.317 689.855 230.854L691.145 228.146ZM685 227C682.068 227 679.472 227.204 677.224 227.626L677.776 230.574C679.795 230.196 682.198 230 685 230V227ZM677.224 227.626C675.064 228.031 673.343 228.447 672.101 228.886L673.099 231.714C674.124 231.353 675.669 230.969 677.776 230.574L677.224 227.626ZM674.084 230.082L673.084 223.282L670.116 223.718L671.116 230.518L674.084 230.082ZM672.239 224.857C673.165 224.421 674.85 223.979 677.428 223.583L676.972 220.617C674.35 221.021 672.302 221.512 670.961 222.143L672.239 224.857ZM677.423 223.583C680.008 223.196 682.766 223 685.7 223V220C682.634 220 679.725 220.204 676.977 220.617L677.423 223.583ZM721.7 269H720.2V270.5H721.7V269ZM721.7 225.1L721.213 223.681L720.2 224.029V225.1H721.7ZM748.4 221.9L748.246 223.392L748.271 223.395L748.297 223.396L748.4 221.9ZM754.8 222.9L756.269 223.202L756.565 221.765L755.134 221.438L754.8 222.9ZM753.3 230.2L752.894 231.644L754.445 232.08L754.769 230.502L753.3 230.2ZM747.6 229.1L747.414 230.588L747.447 230.593L747.48 230.595L747.6 229.1ZM729.9 230.5L729.509 229.052L728.4 229.351V230.5H729.9ZM729.9 269V270.5H731.4V269H729.9ZM723.2 269V225.1H720.2V269H723.2ZM722.187 226.519C728.836 224.237 735.538 223.1 742.3 223.1V220.1C735.195 220.1 728.164 221.296 721.213 223.681L722.187 226.519ZM742.3 223.1C744.387 223.1 746.368 223.198 748.246 223.392L748.554 220.408C746.565 220.202 744.48 220.1 742.3 220.1V223.1ZM748.297 223.396C750.137 223.523 752.192 223.842 754.466 224.362L755.134 221.438C752.742 220.891 750.53 220.543 748.503 220.404L748.297 223.396ZM753.331 222.598L751.831 229.898L754.769 230.502L756.269 223.202L753.331 222.598ZM753.706 228.756C751.507 228.138 749.509 227.748 747.72 227.605L747.48 230.595C749.025 230.719 750.826 231.062 752.894 231.644L753.706 228.756ZM747.786 227.612C746.114 227.403 744.284 227.3 742.3 227.3V230.3C744.183 230.3 745.886 230.397 747.414 230.588L747.786 227.612ZM742.3 227.3C738.092 227.3 733.828 227.886 729.509 229.052L730.291 231.948C734.372 230.847 738.374 230.3 742.3 230.3V227.3ZM728.4 230.5V269H731.4V230.5H728.4ZM729.9 267.5H721.7V270.5H729.9V267.5ZM795.6 232.4H797.1V231.746L796.621 231.301L795.6 232.4ZM791.5 230L790.891 231.371L790.912 231.38L790.934 231.389L791.5 230ZM780.2 230.1L779.486 228.781L779.474 228.787L779.462 228.794L780.2 230.1ZM776.4 233.7L777.639 234.545L777.648 234.532L777.656 234.519L776.4 233.7ZM774.2 239.1L775.663 239.43L775.665 239.421L774.2 239.1ZM777.3 258.3L778.435 257.32L777.3 258.3ZM792.4 262.4L792.197 260.914L792.188 260.915L792.4 262.4ZM795.6 261.8L796.031 263.237L797.1 262.916V261.8H795.6ZM795.6 201.1L795.351 199.621L794.1 199.832V201.1H795.6ZM803.9 199.7H805.4V197.926L803.651 198.221L803.9 199.7ZM803.9 267.7L804.326 269.138L805.4 268.82V267.7H803.9ZM797 269.3L796.719 267.826L797 269.3ZM778.1 268.4L777.525 269.786L778.1 268.4ZM771.1 263.6L769.989 264.607L769.996 264.616L770.005 264.625L771.1 263.6ZM766.6 255.9L765.187 256.403L766.6 255.9ZM766.3 236L764.868 235.554L764.865 235.565L764.861 235.575L766.3 236ZM770.3 228.3L771.464 229.246L770.3 228.3ZM776.5 223.3L775.844 221.951L775.836 221.955L775.829 221.958L776.5 223.3ZM791.4 222.4L790.941 223.828L791.4 222.4ZM795.6 224.3L794.728 225.521L797.1 227.215V224.3H795.6ZM796.621 231.301C795.504 230.264 793.955 229.38 792.066 228.611L790.934 231.389C792.645 232.086 793.83 232.803 794.579 233.499L796.621 231.301ZM792.109 228.629C790.121 227.746 788.047 227.3 785.9 227.3V230.3C787.619 230.3 789.279 230.654 790.891 231.371L792.109 228.629ZM785.9 227.3C783.502 227.3 781.346 227.773 779.486 228.781L780.914 231.419C782.254 230.694 783.898 230.3 785.9 230.3V227.3ZM779.462 228.794C777.711 229.784 776.27 231.154 775.144 232.881L777.656 234.519C778.53 233.179 779.622 232.15 780.938 231.406L779.462 228.794ZM775.161 232.855C774.031 234.512 773.233 236.5 772.735 238.779L775.665 239.421C776.1 237.433 776.769 235.821 777.639 234.545L775.161 232.855ZM772.737 238.77C772.243 240.958 772 243.303 772 245.8H775C775 243.497 775.224 241.375 775.663 239.43L772.737 238.77ZM772 245.8C772 251.419 773.318 255.984 776.165 259.28L778.435 257.32C776.215 254.749 775 250.981 775 245.8H772ZM776.165 259.28C778.999 262.562 782.722 264.2 787.2 264.2V261.2C783.545 261.2 780.668 259.905 778.435 257.32L776.165 259.28ZM787.2 264.2C789.308 264.2 791.118 264.098 792.612 263.885L792.188 260.915C790.882 261.102 789.225 261.2 787.2 261.2V264.2ZM792.603 263.886C794.081 263.685 795.245 263.472 796.031 263.237L795.169 260.363C794.621 260.528 793.653 260.715 792.197 260.914L792.603 263.886ZM797.1 261.8V232.4H794.1V261.8H797.1ZM795.849 202.579L804.149 201.179L803.651 198.221L795.351 199.621L795.849 202.579ZM802.4 199.7V267.7H805.4V199.7H802.4ZM803.474 266.262C801.739 266.776 799.493 267.298 796.719 267.826L797.281 270.774C800.107 270.235 802.461 269.691 804.326 269.138L803.474 266.262ZM796.719 267.826C794.035 268.338 790.866 268.6 787.2 268.6V271.6C791 271.6 794.365 271.329 797.281 270.774L796.719 267.826ZM787.2 268.6C784.039 268.6 781.204 268.063 778.675 267.014L777.525 269.786C780.463 271.003 783.694 271.6 787.2 271.6V268.6ZM778.675 267.014C776.129 265.959 773.976 264.479 772.195 262.575L770.005 264.625C772.091 266.855 774.604 268.574 777.525 269.786L778.675 267.014ZM772.211 262.593C770.424 260.621 769.021 258.231 768.013 255.397L765.187 256.403C766.313 259.569 767.909 262.312 769.989 264.607L772.211 262.593ZM768.013 255.397C767.013 252.584 766.5 249.391 766.5 245.8H763.5C763.5 249.676 764.054 253.216 765.187 256.403L768.013 255.397ZM766.5 245.8C766.5 242.319 766.919 239.199 767.739 236.425L764.861 235.575C763.948 238.668 763.5 242.081 763.5 245.8H766.5ZM767.732 236.446C768.617 233.602 769.867 231.211 771.464 229.246L769.136 227.354C767.266 229.655 765.85 232.398 764.868 235.554L767.732 236.446ZM771.464 229.246C773.066 227.274 774.966 225.744 777.171 224.642L775.829 221.958C773.234 223.256 771 225.059 769.136 227.354L771.464 229.246ZM777.156 224.649C779.391 223.562 781.962 223 784.9 223V220C781.572 220 778.542 220.638 775.844 221.951L777.156 224.649ZM784.9 223C787.249 223 789.255 223.286 790.941 223.828L791.859 220.972C789.811 220.314 787.484 220 784.9 220V223ZM790.941 223.828C792.749 224.409 793.979 224.986 794.728 225.521L796.472 223.079C795.354 222.281 793.784 221.591 791.859 220.972L790.941 223.828ZM797.1 224.3V201.1H794.1V224.3H797.1Z" fill="#2854A1"/>
<path d="M814.034 271.643H411C420.777 269.163 432 266 435.5 253C453.278 273.571 494.68 267.644 505.5 257.5C517.55 274.976 592.113 268.121 597.006 254.507C612.111 272.234 658.92 272.234 674.026 254.507C678.92 268.121 755.45 274.764 767.5 257.288C769 264.5 794 279 804 257.288C804 267.781 804.255 269.163 814.034 271.643Z" fill="#394D54"/>
<path d="M82.2306 298.716C74.1096 280.732 71.3858 260.976 73.2315 241.147L73.2316 241.146C73.3866 239.487 74.7793 238.219 76.4459 238.219H155H180.5H250H263H274.4L288.5 238.218H288.5L300 238.219H300L314.772 238.218H335.185C345.013 238.218 355.088 236.469 364.358 233.329L364.359 233.328C368.902 231.788 374.072 229.622 378.676 226.852L382.032 224.834L379.65 221.725C374.456 214.943 371.706 206.232 370.892 197.435C369.771 185.292 372.318 170.031 379.957 161.198L379.957 161.197L381.992 158.844L384.418 160.793L384.418 160.793C396.752 170.702 406.719 184.242 408.461 199.283L408.939 203.411L412.925 202.238C427.516 197.947 444.496 199.033 457.031 206.268L457.032 206.268L459.691 207.803L458.292 210.534L461.407 212.13L458.292 210.534C447.773 231.063 425.635 237.816 402.911 236.626L400.412 236.495L399.48 238.817C365.159 324.298 290.535 364.891 199.409 364.891C152.619 364.891 110.249 347.45 86.1393 306.542C85.1364 304.734 84.2548 302.904 83.3249 300.973C82.9703 300.236 82.6087 299.485 82.2306 298.716Z" fill="#2496ED" stroke="#2854A1" stroke-width="7"/>
<path d="M215.5 361C183.783 347.467 176.613 339.096 166 318.5C146.622 328.078 137.134 331.651 110 330C134 355 178.5 364 215.5 361Z" fill="#D4EDF1"/>
<path d="M103 328.413C123.68 330.751 145.749 331.17 165 318.709" stroke="#2854A1" stroke-width="7" stroke-linecap="round"/>
<path d="M199 296.501C199 303.404 193.404 309 186.501 309C179.597 309 174 303.404 174 296.501C174 289.599 179.597 284 186.501 284C193.404 284 199 289.599 199 296.501Z" fill="#D4EDF1"/>
<path d="M189.417 290.468C188.574 290.955 188.004 291.867 188.004 292.911C188.004 294.47 189.268 295.731 190.826 295.731C191.893 295.731 192.821 295.138 193.301 294.263C193.639 295.079 193.827 295.975 193.827 296.915C193.827 300.732 190.732 303.827 186.914 303.827C183.097 303.827 180 300.732 180 296.915C180 293.096 183.097 290 186.914 290C187.797 290 188.64 290.166 189.417 290.468Z" fill="#2854A1"/>
<path d="M60 271.643H463.034C453.257 269.163 432.099 265.813 435.588 253C417.811 273.571 374.936 267.432 364.116 257.288C352.066 274.764 281.92 268.121 277.028 254.507C261.922 272.234 215.114 272.234 200.008 254.507C195.113 268.121 124.968 274.764 112.918 257.288C102.098 267.432 91.2797 275.079 73.5 254.507C73.5 265 69.7792 269.163 60 271.643Z" fill="#394D54"/>
<rect x="89.5" y="194.5" width="243" height="43" rx="3.5" fill="#2496ED" stroke="#2854A1" stroke-width="7"/>
<line x1="292.5" y1="207.5" x2="292.5" y2="225.5" stroke="#2854A1" stroke-width="7" stroke-linecap="round"/>
<line x1="305.5" y1="207.5" x2="305.5" y2="225.5" stroke="#2854A1" stroke-width="7" stroke-linecap="round"/>
<line x1="318.5" y1="207.5" x2="318.5" y2="225.5" stroke="#2854A1" stroke-width="7" stroke-linecap="round"/>
<line x1="103.5" y1="207.5" x2="103.5" y2="225.5" stroke="#2854A1" stroke-width="7" stroke-linecap="round"/>
<line x1="116.5" y1="207.5" x2="116.5" y2="225.5" stroke="#2854A1" stroke-width="7" stroke-linecap="round"/>
<line x1="129.5" y1="207.5" x2="129.5" y2="225.5" stroke="#2854A1" stroke-width="7" stroke-linecap="round"/>
<path d="M200.004 216.404C200.004 212.58 198.914 210.617 196.733 210.51C195.866 210.469 195.019 210.607 194.195 210.927C193.537 211.163 193.094 211.395 192.861 211.631V220.757C194.256 221.632 195.495 222.039 196.575 221.975C198.86 221.824 200.004 219.969 200.004 216.404ZM202.694 216.562C202.694 218.505 202.238 220.117 201.322 221.399C200.301 222.85 198.886 223.598 197.076 223.639C195.712 223.682 194.307 223.255 192.861 222.359V230.653L190.522 229.819V211.408C190.906 210.937 191.4 210.533 191.999 210.19C193.391 209.379 195.083 208.962 197.074 208.941L197.107 208.974C198.927 208.951 200.329 209.699 201.314 211.214C202.233 212.603 202.694 214.385 202.694 216.562Z" fill="#2854A1"/>
<path d="M216.989 222.006C216.989 224.611 216.728 226.415 216.206 227.419C215.682 228.422 214.684 229.223 213.209 229.819C212.014 230.29 210.722 230.546 209.335 230.589L208.948 229.115C210.358 228.923 211.351 228.731 211.927 228.539C213.061 228.156 213.839 227.567 214.266 226.779C214.609 226.136 214.778 224.911 214.778 223.096V222.487C213.179 223.214 211.502 223.575 209.749 223.575C208.598 223.575 207.582 223.214 206.707 222.487C205.724 221.696 205.232 220.693 205.232 219.477V209.742L207.572 208.941V218.74C207.572 219.787 207.909 220.593 208.585 221.159C209.261 221.724 210.136 221.996 211.208 221.975C212.28 221.952 213.43 221.538 214.65 220.726V209.294H216.989V222.006Z" fill="#2854A1"/>
<path d="M226.121 223.511C225.842 223.534 225.586 223.544 225.35 223.544C224.027 223.544 222.996 223.229 222.259 222.597C221.524 221.965 221.156 221.092 221.156 219.979V210.766H219.554V209.294H221.156V205.386L223.492 204.555V209.294H226.121V210.766H223.492V219.915C223.492 220.793 223.728 221.415 224.199 221.778C224.603 222.077 225.245 222.249 226.121 222.292V223.511Z" fill="#2854A1"/>
<path d="M240.283 223.319H237.944V214.29C237.944 213.371 237.729 212.58 237.302 211.92C236.808 211.173 236.122 210.799 235.242 210.799C234.169 210.799 232.828 211.365 231.218 212.496V223.319H228.879V201.737L231.218 201V210.83C232.713 209.742 234.346 209.197 236.119 209.197C237.358 209.197 238.361 209.614 239.129 210.446C239.899 211.278 240.283 212.314 240.283 213.553V223.319Z" fill="#2854A1"/>
<path d="M252.716 216.035C252.716 214.566 252.437 213.353 251.881 212.394C251.221 211.224 250.195 210.607 248.808 210.543C246.244 210.692 244.964 212.529 244.964 216.051C244.964 217.665 245.23 219.014 245.768 220.097C246.453 221.476 247.482 222.157 248.854 222.134C251.428 222.113 252.716 220.081 252.716 216.035ZM255.277 216.051C255.277 218.141 254.743 219.882 253.675 221.271C252.501 222.827 250.878 223.608 248.808 223.608C246.755 223.608 245.156 222.827 244.002 221.271C242.955 219.882 242.433 218.141 242.433 216.051C242.433 214.085 242.998 212.432 244.13 211.086C245.325 209.658 246.896 208.941 248.839 208.941C250.781 208.941 252.363 209.658 253.581 211.086C254.712 212.432 255.277 214.085 255.277 216.051Z" fill="#2854A1"/>
<path d="M268.688 223.319H266.349V213.778C266.349 212.731 266.034 211.915 265.404 211.326C264.775 210.74 263.935 210.456 262.889 210.479C261.778 210.5 260.721 210.863 259.718 211.567V223.319H257.379V211.278C258.725 210.298 259.963 209.658 261.095 209.358C262.162 209.079 263.103 208.941 263.915 208.941C264.47 208.941 264.992 208.995 265.484 209.102C266.402 209.315 267.15 209.709 267.725 210.287C268.368 210.927 268.688 211.695 268.688 212.593V223.319Z" fill="#2854A1"/>
<path d="M167.419 201.823C166.216 201.829 165.067 201.932 164.055 202.111C161.076 202.637 160.535 203.739 160.535 205.77V208.453H167.575V209.347H160.535H157.893C155.847 209.347 154.056 210.577 153.496 212.917C152.849 215.598 152.821 217.271 153.496 220.071C153.996 222.156 155.191 223.641 157.237 223.641H159.658V220.424C159.658 218.101 161.668 216.051 164.055 216.051H171.087C173.044 216.051 174.607 214.439 174.607 212.474V205.77C174.607 203.862 172.998 202.429 171.087 202.111C169.878 201.909 168.623 201.818 167.419 201.823ZM163.612 203.981C164.34 203.981 164.933 204.585 164.933 205.327C164.933 206.066 164.34 206.664 163.612 206.664C162.883 206.664 162.291 206.066 162.291 205.327C162.291 204.585 162.883 203.981 163.612 203.981Z" fill="url(#paint0_linear)"/>
<path d="M175.485 209.347V212.474C175.485 214.897 173.43 216.937 171.087 216.937H164.055C162.129 216.937 160.535 218.586 160.535 220.514V227.218C160.535 229.126 162.194 230.248 164.055 230.795C166.284 231.451 168.421 231.569 171.087 230.795C172.859 230.282 174.607 229.249 174.607 227.218V224.535H167.575V223.641H174.607H178.127C180.173 223.641 180.935 222.213 181.647 220.071C182.382 217.866 182.351 215.746 181.647 212.917C181.141 210.88 180.176 209.347 178.127 209.347H175.485ZM171.53 226.324C172.26 226.324 172.851 226.922 172.851 227.661C172.851 228.403 172.26 229.007 171.53 229.007C170.803 229.007 170.209 228.403 170.209 227.661C170.209 226.922 170.803 226.324 171.53 226.324Z" fill="url(#paint1_linear)"/>
<rect x="103.5" y="151.5" width="108" height="43" rx="3.5" fill="#2496ED" stroke="#2854A1" stroke-width="7"/>
<line x1="197.5" y1="164.5" x2="197.5" y2="182.5" stroke="#2854A1" stroke-width="7" stroke-linecap="round"/>
<line x1="187.5" y1="164.5" x2="187.5" y2="182.5" stroke="#2854A1" stroke-width="7" stroke-linecap="round"/>
<line x1="126.5" y1="164.5" x2="126.5" y2="182.5" stroke="#2854A1" stroke-width="7" stroke-linecap="round"/>
<line x1="116.5" y1="164.5" x2="116.5" y2="182.5" stroke="#2854A1" stroke-width="7" stroke-linecap="round"/>
<path d="M145.204 180.15H146.517V182.891C146.517 183.424 146.551 183.796 146.617 184.005C146.684 184.211 146.79 184.371 146.936 184.486C147.085 184.601 147.268 184.659 147.483 184.659C147.699 184.659 147.881 184.603 148.031 184.491C148.183 184.376 148.295 184.209 148.368 183.989C148.422 183.825 148.449 183.475 148.449 182.938V180.15H149.753V182.561C149.753 183.555 149.682 184.235 149.539 184.601C149.365 185.048 149.108 185.391 148.768 185.632C148.429 185.869 147.997 185.987 147.474 185.987C146.906 185.987 146.446 185.848 146.094 185.569C145.745 185.29 145.499 184.901 145.356 184.402C145.255 184.057 145.204 183.43 145.204 182.519V180.15Z" fill="#2854A1"/>
<path d="M150.287 180.15H151.581V180.73C151.876 180.458 152.142 180.27 152.38 180.166C152.622 180.057 152.867 180.003 153.118 180.003C153.632 180.003 154.068 180.2 154.427 180.594C154.728 180.929 154.879 181.424 154.879 182.08V185.841H153.594V183.346C153.594 182.666 153.565 182.214 153.508 181.991C153.454 181.768 153.358 181.599 153.218 181.484C153.082 181.365 152.912 181.306 152.709 181.306C152.445 181.306 152.219 181.403 152.028 181.599C151.841 181.791 151.711 182.057 151.638 182.399C151.6 182.577 151.581 182.962 151.581 183.555V185.841H150.287V180.15Z" fill="#2854A1"/>
<path d="M156.24 177.807C156.468 177.807 156.664 177.897 156.825 178.079C156.99 178.26 157.073 178.48 157.073 178.738C157.073 178.992 156.992 179.21 156.83 179.391C156.668 179.569 156.475 179.658 156.25 179.658C156.018 179.658 155.82 179.568 155.655 179.386C155.493 179.201 155.412 178.978 155.412 178.717C155.412 178.466 155.493 178.251 155.655 178.073C155.817 177.896 156.012 177.807 156.24 177.807ZM155.588 180.15H156.892V185.841H155.588V180.15Z" fill="#2854A1"/>
<path d="M162.926 181.301L161.846 181.954C161.643 181.721 161.442 181.559 161.242 181.468C161.045 181.377 160.813 181.332 160.547 181.332C160.062 181.332 159.668 181.492 159.367 181.813C159.069 182.131 158.92 182.539 158.92 183.037C158.92 183.522 159.064 183.918 159.353 184.225C159.641 184.531 160.02 184.685 160.49 184.685C161.07 184.685 161.523 184.467 161.846 184.031L162.869 184.8C162.314 185.591 161.53 185.987 160.518 185.987C159.608 185.987 158.894 185.691 158.377 185.098C157.863 184.505 157.606 183.811 157.606 183.016C157.606 182.465 157.731 181.958 157.982 181.494C158.233 181.03 158.582 180.666 159.029 180.401C159.479 180.136 159.982 180.003 160.537 180.003C161.051 180.003 161.513 180.117 161.922 180.343C162.332 180.567 162.666 180.886 162.926 181.301Z" fill="#2854A1"/>
<path d="M166.144 180.003C166.632 180.003 167.091 180.138 167.519 180.406C167.95 180.675 168.287 181.039 168.528 181.499C168.769 181.96 168.889 182.457 168.889 182.99C168.889 183.527 168.767 184.029 168.523 184.497C168.282 184.964 167.952 185.33 167.533 185.595C167.114 185.856 166.653 185.987 166.148 185.987C165.406 185.987 164.771 185.698 164.245 185.119C163.721 184.537 163.46 183.83 163.46 183.001C163.46 182.111 163.756 181.37 164.35 180.778C164.87 180.261 165.468 180.003 166.144 180.003ZM166.163 181.348C165.76 181.348 165.423 181.503 165.154 181.813C164.887 182.12 164.754 182.514 164.754 182.995C164.754 183.491 164.886 183.892 165.149 184.198C165.415 184.505 165.752 184.659 166.158 184.659C166.564 184.659 166.902 184.503 167.171 184.193C167.441 183.883 167.576 183.484 167.576 182.995C167.576 182.507 167.443 182.111 167.176 181.808C166.913 181.501 166.575 181.348 166.163 181.348Z" fill="#2854A1"/>
<path d="M169.423 180.15H170.536V180.866C170.657 180.584 170.817 180.37 171.017 180.223C171.217 180.077 171.436 180.003 171.674 180.003C171.842 180.003 172.018 180.052 172.202 180.15L171.797 181.379C171.645 181.295 171.52 181.254 171.421 181.254C171.221 181.254 171.052 181.39 170.912 181.662C170.776 181.934 170.708 182.467 170.708 183.262L170.712 183.539V185.841H169.423V180.15" fill="#2854A1"/>
<path d="M172.735 180.15H174.029V180.73C174.324 180.458 174.591 180.27 174.829 180.166C175.07 180.057 175.316 180.003 175.567 180.003C176.08 180.003 176.517 180.2 176.875 180.594C177.177 180.929 177.327 181.424 177.327 182.08V185.841H176.042V183.346C176.042 182.666 176.014 182.214 175.957 181.991C175.903 181.768 175.806 181.599 175.666 181.484C175.53 181.365 175.36 181.306 175.157 181.306C174.894 181.306 174.667 181.403 174.477 181.599C174.29 181.791 174.16 182.057 174.087 182.399C174.048 182.577 174.029 182.962 174.029 183.555V185.841H172.735V180.15Z" fill="#2854A1"/>
<path d="M144.849 178.767L144.927 177.669C144.287 177.738 143.991 177.755 143.647 177.755C143.523 177.755 143.335 177.755 143.086 177.738C142.446 177.223 141.713 177 140.714 177C138.716 177 137.328 178.269 137.328 180.07C137.328 180.705 137.531 181.271 137.905 181.717C138.202 182.06 138.436 182.214 138.982 182.42L137.874 183.346C137.718 183.466 137.609 183.826 137.609 184.169C137.609 184.787 137.889 185.096 138.67 185.319L137.406 186.142C137.172 186.296 137 186.742 137 187.205C137 188.698 138.311 189.641 140.371 189.641C143.101 189.641 144.943 188.08 144.943 185.799C144.943 184.358 144.209 183.672 142.633 183.672H142.259C140.714 183.724 140.152 183.741 139.98 183.741C139.497 183.741 139.247 183.569 139.247 183.226C139.247 182.969 139.387 182.763 139.7 182.557C139.98 182.574 140.136 182.592 140.324 182.592C141.4 182.592 142.399 182.197 143.039 181.494C143.523 180.962 143.726 180.362 143.726 179.504C143.726 179.23 143.71 179.024 143.647 178.698L144.849 178.767ZM140.527 177.858C141.354 177.858 141.806 178.595 141.806 179.95C141.806 181.168 141.385 181.803 140.558 181.803C139.746 181.803 139.247 181.031 139.247 179.744C139.247 178.509 139.684 177.858 140.527 177.858ZM140.839 185.336C142.742 185.336 143.211 185.61 143.211 186.708C143.211 187.891 142.165 188.783 140.776 188.783C139.387 188.783 138.467 188.063 138.467 187C138.467 186.365 138.795 185.782 139.263 185.524C139.512 185.404 140.074 185.336 140.839 185.336Z" fill="#2854A1"/>
<path d="M154.836 175.903C154.526 175.804 154.525 175.76 154.81 174.888C155.096 174.017 154.965 173.208 154.436 172.572C153.717 171.707 153.371 170.97 153.26 170.067C153.166 169.292 153.136 169.231 152.822 169.17C152.611 169.129 152.321 169.21 151.628 169.5C150.62 169.923 150.38 170.109 150.142 170.65C150.017 170.934 150.002 171.104 150.073 171.432C150.16 171.833 150.514 172.479 150.649 172.48C150.684 172.48 150.877 172.614 151.079 172.776C151.413 173.046 151.436 173.093 151.341 173.313C151.136 173.792 150.647 174.372 150.45 174.372C150.339 174.372 149.887 174.053 149.389 173.625C148.412 172.783 148.371 172.698 148.27 171.319C148.15 169.672 148.552 168.904 150.345 167.358L151.469 166.389L151.541 165.801C151.615 165.195 151.511 163.751 151.335 162.954C151.232 162.484 150.89 162.035 150.565 161.945C150.211 161.846 150.004 162.05 149.735 162.76C149.444 163.526 149.167 163.794 148.662 163.794C148.347 163.794 148.054 163.591 147.851 163.235C147.706 162.979 147.621 161.444 147.708 160.636C147.75 160.247 147.752 159.854 147.714 159.762C147.65 159.611 147.106 159.286 145.823 158.633C145.59 158.514 145.318 158.354 145.219 158.277C145.12 158.201 144.863 158.06 144.647 157.964C144.16 157.747 142.889 157 143.008 157C143.233 157 144.187 157.295 144.695 157.522C145.005 157.661 145.302 157.774 145.354 157.774C145.407 157.774 146.005 157.967 146.682 158.204C147.36 158.44 147.98 158.634 148.059 158.634C148.248 158.634 148.277 158.47 148.217 157.759C148.189 157.436 148.191 157.172 148.22 157.172C148.248 157.172 148.373 157.234 148.497 157.311C148.875 157.543 149.688 157.686 150.644 157.687C151.558 157.688 152.751 157.87 153.207 158.079C153.861 158.378 154.619 159.311 155.582 161.001C156.251 162.177 156.97 162.674 158 162.675C158.417 162.676 159.528 162.503 161.032 162.204C162.273 161.958 163.911 161.902 164.547 162.085C165.323 162.309 166.348 162.905 167.196 163.627C167.99 164.303 168.112 164.453 168.599 165.349C169.181 166.419 169.823 167.939 170.394 169.599C170.476 169.835 170.648 170.233 170.776 170.483C171.12 171.149 171.103 171.19 170.479 171.19C169.802 171.19 169.484 171.082 169.04 170.703C168.614 170.34 168.503 170.117 167.837 168.296C167.495 167.363 167.163 166.804 166.951 166.804C166.805 166.804 166.511 167.803 166.511 168.297C166.511 168.648 166.729 169.122 167.294 169.996C168.212 171.416 168.695 173.424 168.502 175.017L168.418 175.705L167.806 175.73C166.843 175.771 166.853 175.784 166.853 174.399C166.853 172.925 166.753 172.605 166.106 172.011C165.837 171.764 165.234 171.062 164.766 170.451C164.298 169.84 163.85 169.341 163.77 169.341C163.586 169.341 163.495 169.843 163.485 170.904C163.479 171.602 163.452 171.72 163.247 171.936C162.691 172.519 162.301 173.582 162.061 175.167C162.008 175.518 161.962 175.583 161.736 175.634C161.403 175.709 160.482 175.722 160.402 175.652C160.334 175.592 160.454 174.639 160.726 173.082C160.829 172.49 160.942 171.697 160.977 171.319C161.038 170.645 160.901 169.383 160.738 169.128C160.671 169.022 160.327 168.999 158.717 168.993C157.65 168.989 156.48 168.953 156.117 168.914L155.457 168.843V169.138C155.457 169.453 155.537 169.731 156.075 171.276C156.264 171.82 156.539 172.649 156.685 173.118L156.95 173.972L156.726 174.666C156.603 175.048 156.42 175.506 156.32 175.683C156.143 175.996 156.122 176.005 155.626 175.999C155.344 175.995 154.989 175.952 154.836 175.903Z" fill="#499848" stroke="#2854A1" stroke-width="0.5"/>
<rect x="209.5" y="151.5" width="108" height="43" rx="3.5" fill="#2496ED" stroke="#2854A1" stroke-width="7"/>
<line x1="305.5" y1="164.5" x2="305.5" y2="182.5" stroke="#2854A1" stroke-width="7" stroke-linecap="round"/>
<line x1="295.5" y1="164.5" x2="295.5" y2="182.5" stroke="#2854A1" stroke-width="7" stroke-linecap="round"/>
<line x1="231.45" y1="164.5" x2="231.45" y2="182.5" stroke="#2854A1" stroke-width="7" stroke-linecap="round"/>
<line x1="221.45" y1="164.5" x2="221.45" y2="182.5" stroke="#2854A1" stroke-width="7" stroke-linecap="round"/>
<path fill-rule="evenodd" clip-rule="evenodd" d="M258.41 155.863C258.41 155.974 258.821 156.497 258.959 156.561C259.018 156.589 259.11 156.68 259.163 156.763C259.217 156.846 259.318 156.948 259.388 156.99C259.726 157.191 259.819 157.262 259.819 157.314C259.819 157.345 259.967 157.493 260.148 157.643C260.328 157.793 260.574 158.005 260.694 158.114C260.815 158.224 260.995 158.382 261.094 158.467C261.194 158.552 261.369 158.711 261.484 158.821C261.599 158.931 261.741 159.036 261.799 159.055C261.857 159.073 261.917 159.127 261.932 159.173C261.947 159.22 262.046 159.312 262.152 159.378C262.258 159.443 262.357 159.529 262.37 159.569C262.384 159.61 262.458 159.684 262.535 159.735C262.611 159.787 262.713 159.902 262.761 159.991C262.809 160.08 262.922 160.209 263.011 160.277C263.101 160.345 263.174 160.423 263.174 160.45C263.174 160.478 263.042 160.69 262.881 160.922C262.667 161.229 262.492 161.416 262.233 161.611C262.037 161.758 261.532 162.141 261.11 162.462C260.687 162.783 260.186 163.162 259.996 163.304C259.527 163.654 259.295 163.886 259.261 164.038C259.246 164.107 259.267 164.273 259.307 164.406C259.348 164.54 259.381 164.719 259.381 164.805C259.382 164.891 259.405 165.012 259.434 165.074C259.512 165.247 259.863 165.442 260.254 165.53C260.715 165.634 260.908 165.58 261.261 165.246C261.5 165.02 261.54 165 261.752 165.001C263.157 165.014 264.114 165.062 264.211 165.126C264.324 165.2 264.447 165.548 264.539 166.054C264.577 166.262 264.576 166.484 264.535 166.856C264.445 167.689 264.273 168.088 263.779 168.611C263.581 168.821 263.284 169.251 263.126 169.557C263.025 169.754 262.826 169.858 262.292 169.992C261.551 170.179 260.818 170.264 259.956 170.264C259.008 170.264 258.277 170.177 256.441 169.848C254.74 169.544 253.764 169.473 253.026 169.602C252.242 169.739 251.524 170.039 251.111 170.405C250.986 170.514 250.85 170.604 250.809 170.604C250.695 170.604 250.536 170.416 250.405 170.123C250.183 169.631 249.767 169.112 249.379 168.845C248.489 168.233 247.181 168.383 246.278 169.201C245.607 169.809 245.397 170.285 245.134 171.791C245.048 172.284 245.036 172.515 245.053 173.346C245.071 174.249 245.085 174.369 245.228 174.931C245.415 175.662 245.46 176.092 245.382 176.389C245.289 176.74 245.295 176.849 245.407 176.865C245.513 176.88 245.673 176.663 245.674 176.503C245.674 176.454 245.716 176.349 245.768 176.271L245.862 176.129L245.895 176.261C245.928 176.39 245.747 176.89 245.602 177.069C245.351 177.382 245.218 178.372 245.335 179.062C245.368 179.263 245.42 179.591 245.45 179.792C245.512 180.215 245.555 180.308 245.65 180.229C245.729 180.163 245.806 179.705 245.863 178.957C245.887 178.645 245.92 178.367 245.937 178.339C246.001 178.236 246.102 178.347 246.134 178.557C246.17 178.801 246.415 179.125 246.543 179.1C246.61 179.088 246.619 179.019 246.605 178.646C246.592 178.296 246.603 178.194 246.663 178.145C246.727 178.092 246.744 178.109 246.786 178.269C246.813 178.371 246.849 178.536 246.867 178.635C246.934 179.011 247.181 179.014 247.181 178.638C247.181 178.34 247.356 177.995 247.659 177.696C247.783 177.572 247.97 177.347 248.072 177.195C248.175 177.043 248.285 176.927 248.315 176.937C248.346 176.947 248.382 177.063 248.396 177.195C248.413 177.363 248.442 177.434 248.492 177.434C248.609 177.434 248.683 177.213 248.745 176.683C248.832 175.945 248.758 175.463 248.423 174.584C248.277 174.2 248.133 173.776 248.103 173.642C248.034 173.331 248.036 172.368 248.107 172.025C248.279 171.194 248.858 170.903 249.566 171.292C249.984 171.522 250.003 171.563 249.839 171.887C249.765 172.033 249.647 172.368 249.577 172.63C249.466 173.045 249.449 173.207 249.447 173.861C249.444 174.63 249.474 174.844 249.715 175.781C249.77 175.995 249.843 176.258 249.878 176.365C249.913 176.472 249.969 176.657 250.002 176.778C250.035 176.898 250.092 177.09 250.129 177.205C250.243 177.567 250.214 177.957 250.042 178.349C249.831 178.831 249.631 179.129 249.267 179.507C248.858 179.931 248.686 180.022 248.216 180.063C247.789 180.101 247.524 180.212 247.387 180.41C247.283 180.563 247.133 181.116 246.984 181.906C246.928 182.2 246.863 182.49 246.839 182.549C246.815 182.608 246.749 183.078 246.692 183.593C246.613 184.309 246.561 184.598 246.469 184.822C246.281 185.278 246.172 185.485 245.992 185.729C245.763 186.04 245.702 186.29 245.772 186.629C245.803 186.776 245.888 186.988 245.962 187.099C246.171 187.413 246.402 188.081 246.478 188.59C246.517 188.844 246.548 189.067 246.548 189.085C246.548 189.103 246.583 189.152 246.625 189.194C246.691 189.26 246.88 189.271 247.958 189.271C249.366 189.271 249.405 189.262 249.341 188.961C249.194 188.266 248.893 187.871 248.269 187.555C247.952 187.394 247.87 187.227 247.989 186.987C248.056 186.853 248.079 186.603 248.11 185.676C248.13 185.046 248.17 184.417 248.197 184.277C248.278 183.868 248.555 183.33 248.787 183.131C248.964 182.979 249.319 182.376 249.319 182.227C249.319 182.205 249.416 182.097 249.533 181.989C249.673 181.86 250.041 181.65 250.6 181.38C251.809 180.796 252.588 180.263 253.304 179.528C253.423 179.406 253.541 179.306 253.567 179.306C253.593 179.306 253.717 179.191 253.842 179.051C254.061 178.806 254.075 178.799 254.195 178.863C254.413 178.979 254.445 179.148 254.308 179.458C254.211 179.678 254.072 179.836 253.565 180.307C252.497 181.298 252.457 181.354 252.574 181.7C252.652 181.933 252.903 182.083 253.82 182.443C254.272 182.62 254.901 182.911 255.217 183.089C255.853 183.446 256.536 183.964 256.655 184.18C256.746 184.343 257.41 184.847 257.535 184.847C257.582 184.847 257.645 184.878 257.676 184.915C257.767 185.025 257.649 185.208 257.359 185.408C257.215 185.507 257.097 185.599 257.097 185.612C257.097 185.656 257.361 185.967 257.698 186.32C258.439 187.098 258.68 187.326 258.748 187.314C258.843 187.297 259.408 186.389 259.502 186.103C259.655 185.634 259.539 185.039 259.252 184.82C259.079 184.688 258.81 184.165 258.71 183.767C258.553 183.143 258.103 182.767 257.381 182.655C257.185 182.625 256.915 182.558 256.781 182.507C256.416 182.367 255.834 181.896 255.681 181.618C255.559 181.393 255.557 181.378 255.629 181.194C255.689 181.041 255.827 180.91 256.34 180.52C257.31 179.783 257.805 179.245 258.095 178.613C258.165 178.459 258.24 178.333 258.261 178.333C258.283 178.333 258.39 178.365 258.5 178.404C258.829 178.52 259.854 178.712 260.476 178.775C261.169 178.844 262.659 178.806 263.417 178.699C264.124 178.599 264.187 178.602 264.218 178.734C264.232 178.795 264.191 179.511 264.127 180.326C264.004 181.899 263.978 182.028 263.716 182.33C263.43 182.658 263.411 182.783 263.563 183.328C263.68 183.752 263.684 184.026 263.583 184.562C263.503 184.986 263.266 185.738 263.133 185.99C262.953 186.332 262.834 186.684 262.834 186.877C262.833 187.046 262.865 187.118 263.01 187.279C263.108 187.387 263.249 187.511 263.325 187.556C263.538 187.682 263.57 187.844 263.488 188.386C263.395 189.005 263.396 189.204 263.494 189.241C263.617 189.289 266.205 189.274 266.282 189.225C266.342 189.187 266.342 189.153 266.283 188.975C266.207 188.743 265.709 187.973 265.471 187.717C265.002 187.216 264.697 185.965 264.823 185.066C264.892 184.576 264.953 184.373 265.183 183.875C265.426 183.347 265.507 183.09 265.507 182.84C265.508 182.367 265.711 181.904 266.101 181.483C266.515 181.037 266.911 180.389 267.062 179.913C267.096 179.806 267.138 179.697 267.156 179.67C267.174 179.643 267.238 179.49 267.299 179.33C267.36 179.169 267.442 178.965 267.481 178.875C267.562 178.689 267.5 178.69 268.326 178.866C269.186 179.048 269.954 179.02 271.07 178.766C272.03 178.546 273.078 178.467 273.266 178.598C273.424 178.709 273.511 179.034 273.573 179.743C273.604 180.104 273.641 180.487 273.655 180.594C273.686 180.826 273.551 181.061 273.284 181.239C273.09 181.368 272.973 181.601 273.016 181.771C273.032 181.835 273.108 181.989 273.186 182.114C273.263 182.238 273.316 182.357 273.303 182.378C273.29 182.399 273.194 182.417 273.091 182.417C272.942 182.417 272.785 182.49 272.746 182.578C272.744 182.583 272.693 182.965 272.634 183.427C272.498 184.476 272.5 184.482 272.998 184.447C273.456 184.414 273.811 184.233 274.213 183.826C274.531 183.504 274.597 183.371 274.597 183.048C274.597 182.864 274.715 182.6 274.974 182.198L275.194 181.858L275.164 181.226C275.148 180.878 275.107 180.495 275.073 180.375C275.031 180.224 275.016 179.826 275.024 179.087C275.037 177.767 274.99 177.531 274.635 177.14C274.266 176.735 274.04 176.659 273.188 176.652C272.496 176.647 272.474 176.643 272.021 176.466C271.767 176.367 271.49 176.254 271.406 176.216C271.322 176.177 271.242 176.146 271.23 176.146C271.217 176.146 271.107 176.09 270.985 176.022L270.764 175.898L270.834 175.718C270.873 175.619 270.947 175.451 270.999 175.344C271.339 174.648 271.81 173.231 271.928 172.549C272.025 171.992 272.006 171.24 271.883 170.734C271.758 170.223 271.757 170.215 271.851 170.215C271.913 170.215 272.131 170.61 272.232 170.908C272.31 171.139 272.484 170.849 272.535 170.401C272.558 170.199 272.541 170.079 272.455 169.851C272.331 169.52 272.081 169.134 271.898 168.99C271.747 168.871 271.516 168.434 271.583 168.392C271.609 168.376 271.713 168.386 271.814 168.414C272.072 168.486 272.215 168.478 272.215 168.393C272.215 168.353 272.15 168.215 272.07 168.085C271.99 167.955 271.894 167.762 271.857 167.657C271.82 167.551 271.71 167.308 271.614 167.117C271.439 166.769 271.439 166.656 271.613 166.788C271.731 166.878 271.848 166.879 271.921 166.791C271.968 166.735 271.914 166.626 271.643 166.22C271.458 165.944 271.281 165.669 271.249 165.608C271.156 165.434 271.228 165.393 271.438 165.5C271.781 165.675 271.874 165.586 271.68 165.268C271.549 165.052 271.396 164.621 271.31 164.223C271.271 164.041 271.196 163.795 271.144 163.674C271.063 163.485 271.06 163.451 271.123 163.427C271.163 163.412 271.25 163.435 271.318 163.479C271.451 163.567 271.535 163.545 271.535 163.424C271.535 163.144 270.888 162.295 270.485 162.046C270.323 161.946 270.094 161.674 270.136 161.632C270.148 161.621 270.276 161.676 270.421 161.756C270.844 161.989 270.988 161.937 270.796 161.62C270.521 161.166 269.839 160.712 269.104 160.493C268.639 160.355 268.43 160.248 268.091 159.971C267.941 159.849 267.719 159.707 267.598 159.657C267.477 159.606 267.339 159.543 267.291 159.516C267.143 159.435 266.601 159.391 266.231 159.431C266.038 159.451 265.862 159.457 265.84 159.443C265.818 159.43 265.71 159.267 265.599 159.081C265.489 158.895 265.372 158.743 265.339 158.743C265.252 158.743 265.147 158.877 264.996 159.181C264.922 159.328 264.839 159.463 264.811 159.481C264.728 159.534 264.592 159.435 264.461 159.227C264.337 159.032 264.201 158.981 264.11 159.095C264.083 159.129 264.035 159.27 264.002 159.409C263.918 159.77 263.847 159.811 263.634 159.624C263.539 159.54 263.445 159.472 263.425 159.472C263.405 159.472 263.309 159.401 263.213 159.314C262.74 158.889 261.969 158.306 261.88 158.306C261.843 158.306 261.813 158.284 261.813 158.258C261.813 158.203 260.848 157.367 260.685 157.281C260.623 157.248 260.513 157.159 260.439 157.083C260.365 157.007 260.262 156.944 260.21 156.944C260.157 156.944 260.092 156.903 260.065 156.852C260.038 156.802 259.95 156.737 259.869 156.709C259.788 156.681 259.722 156.638 259.722 156.613C259.722 156.559 258.55 155.778 258.469 155.778C258.436 155.778 258.41 155.816 258.41 155.863ZM257.559 171.941V172.281H257.194H256.83L256.815 171.995C256.793 171.573 256.796 171.57 257.206 171.586L257.559 171.601V171.941ZM260.306 172.748C260.609 172.839 260.947 173.182 261.032 173.487C261.075 173.642 261.081 173.737 261.049 173.769C261.023 173.796 260.85 173.811 260.666 173.803C260.337 173.788 260.329 173.785 260.253 173.623C260.143 173.39 260.033 173.326 259.741 173.326C259.265 173.326 259.078 173.618 259.08 174.359C259.083 174.953 259.307 175.284 259.708 175.284C260.016 175.284 260.108 175.231 260.223 174.987L260.331 174.76L260.684 174.746C261.102 174.729 261.138 174.769 260.995 175.091C260.718 175.718 260.093 176.032 259.377 175.902C258.677 175.775 258.325 175.314 258.277 174.462C258.211 173.321 258.826 172.606 259.819 172.667C259.967 172.676 260.185 172.712 260.306 172.748ZM263.822 172.792C264.262 173.013 264.548 173.448 264.626 174.015C264.741 174.861 264.328 175.63 263.635 175.856C263.385 175.938 262.767 175.938 262.517 175.856C261.894 175.65 261.516 175.07 261.513 174.313C261.51 173.53 261.92 172.89 262.548 172.699C262.638 172.672 262.909 172.655 263.149 172.662C263.498 172.672 263.634 172.698 263.822 172.792ZM267.101 173.041L267.115 173.412L266.834 173.447C266.18 173.529 266.125 173.634 266.092 174.882L266.066 175.83H265.701H265.337V174.299V172.767H265.677H266.017L266.032 172.998C266.04 173.125 266.061 173.229 266.078 173.229C266.095 173.229 266.198 173.13 266.306 173.008C266.503 172.787 266.796 172.637 266.99 172.659C267.076 172.669 267.088 172.712 267.101 173.041ZM269.725 172.72C270.041 172.814 270.293 173.047 270.364 173.312C270.399 173.441 270.414 173.93 270.405 174.672L270.392 175.83H270.028H269.663L269.639 174.727C269.617 173.71 269.607 173.615 269.514 173.49C269.346 173.266 268.954 173.227 268.675 173.407C268.451 173.551 268.407 173.762 268.378 174.833L268.351 175.83H268.01H267.67L267.646 174.712C267.632 174.097 267.632 173.408 267.646 173.181L267.67 172.767H268.01C268.337 172.767 268.351 172.772 268.365 172.889C268.396 173.149 268.419 173.156 268.613 172.967C268.927 172.66 269.269 172.585 269.725 172.72ZM250.632 173.877L250.656 174.987L250.815 175.129C251.009 175.302 251.302 175.321 251.54 175.176C251.806 175.014 251.821 174.948 251.847 173.812L251.872 172.767H252.236H252.601V174.299V175.83H252.26H251.92L251.905 175.648C251.897 175.547 251.881 175.465 251.869 175.465C251.857 175.465 251.749 175.541 251.628 175.633C251.057 176.069 250.317 175.964 249.994 175.4C249.883 175.205 249.878 175.156 249.862 174.04C249.854 173.403 249.859 172.85 249.874 172.81C249.895 172.754 249.979 172.742 250.255 172.753L250.608 172.767L250.632 173.877ZM254.358 173.856C254.526 174.455 254.676 174.956 254.69 174.97C254.741 175.021 254.776 174.923 255.071 173.902C255.237 173.332 255.39 172.837 255.411 172.804C255.437 172.764 255.576 172.743 255.812 172.743C256.125 172.743 256.173 172.755 256.172 172.828C256.17 172.875 255.932 173.569 255.642 174.372L255.115 175.83L254.737 175.844C254.529 175.852 254.338 175.837 254.311 175.81C254.236 175.735 253.207 172.833 253.238 172.783C253.253 172.759 253.442 172.746 253.658 172.753L254.052 172.767L254.358 173.856ZM257.559 174.299V175.83H257.194H256.83L256.817 174.348C256.81 173.533 256.815 172.837 256.828 172.802C256.846 172.756 256.95 172.743 257.206 172.753L257.559 172.767V174.299ZM262.737 173.36C262.409 173.53 262.243 173.989 262.316 174.521C262.384 175.02 262.646 175.282 263.076 175.282C263.59 175.282 263.824 174.976 263.828 174.299C263.83 173.835 263.737 173.577 263.505 173.408C263.321 173.273 262.949 173.25 262.737 173.36Z" fill="#2854A1"/>
<rect x="114.5" y="108.5" width="193" height="43" rx="3.5" fill="#2496ED" stroke="#2854A1" stroke-width="7"/>
<line x1="285.5" y1="120.5" x2="285.5" y2="138.5" stroke="#2854A1" stroke-width="7" stroke-linecap="round"/>
<line x1="295.5" y1="120.5" x2="295.5" y2="138.5" stroke="#2854A1" stroke-width="7" stroke-linecap="round"/>
<line x1="136.5" y1="120.5" x2="136.5" y2="138.5" stroke="#2854A1" stroke-width="7" stroke-linecap="round"/>
<line x1="126.5" y1="120.5" x2="126.5" y2="138.5" stroke="#2854A1" stroke-width="7" stroke-linecap="round"/>
<path fill-rule="evenodd" clip-rule="evenodd" d="M244.641 114.165C244.393 114.443 244.477 114.758 245.198 116.258L245.589 117.07L245.513 115.836C245.472 115.158 245.399 114.488 245.351 114.348C245.222 113.971 244.89 113.885 244.641 114.165ZM247.574 117.495L246.204 119.153L244.375 118.639C242.437 118.094 241.959 118.025 241.959 118.287C241.959 118.376 242.391 119.307 242.918 120.356C243.445 121.405 243.878 122.336 243.881 122.425C243.883 122.514 243.419 123.406 242.85 124.406C241.833 126.193 241.636 126.726 241.995 126.725C242.095 126.724 242.941 126.542 243.876 126.319C244.811 126.096 245.701 125.914 245.854 125.914C246.03 125.914 246.586 126.535 247.38 127.618C248.067 128.555 248.716 129.322 248.822 129.322C249.055 129.322 249.195 128.761 249.288 127.456C249.327 126.92 249.402 126.081 249.456 125.59L249.554 124.697L251.476 123.821C252.817 123.211 253.386 122.875 253.356 122.711C253.333 122.583 252.5 122.055 251.505 121.539C250.218 120.872 249.686 120.514 249.658 120.296C249.636 120.128 249.571 119.079 249.513 117.964C249.427 116.295 249.367 115.929 249.176 115.888C249.036 115.858 248.406 116.489 247.574 117.495ZM252.253 118.22C251.763 118.718 251.361 119.189 251.361 119.268C251.361 119.467 253.255 118.497 253.591 118.125C253.822 117.869 253.837 117.776 253.682 117.566C253.388 117.169 253.206 117.252 252.253 118.22ZM239.27 122.082C239.011 122.838 239.521 122.983 241.224 122.638L242.176 122.446L241.381 122.239C239.812 121.831 239.367 121.797 239.27 122.082ZM251.879 127.139C252.479 127.907 252.794 128.188 253.012 128.153C253.223 128.12 253.314 127.987 253.314 127.711C253.314 127.391 253.125 127.203 252.301 126.7C251.744 126.36 251.234 126.08 251.168 126.079C251.101 126.078 251.421 126.555 251.879 127.139Z" fill="url(#paint2_linear)"/>
<path d="M245.198 116.258C244.477 114.758 244.393 114.443 244.641 114.165C244.89 113.885 245.222 113.971 245.351 114.348C245.399 114.488 245.472 115.158 245.513 115.836L245.589 117.07L245.198 116.258Z" fill="url(#paint3_linear)"/>
<path d="M251.361 119.268C251.361 119.189 251.763 118.718 252.253 118.22C253.206 117.252 253.388 117.169 253.682 117.566C253.837 117.776 253.822 117.869 253.591 118.125C253.255 118.497 251.361 119.467 251.361 119.268Z" fill="url(#paint4_linear)"/>
<path d="M241.224 122.638C239.521 122.983 239.011 122.838 239.27 122.082C239.367 121.797 239.812 121.831 241.381 122.239L242.176 122.446L241.224 122.638Z" fill="url(#paint5_linear)"/>
<path d="M253.012 128.153C252.794 128.188 252.479 127.907 251.879 127.139C251.421 126.555 251.101 126.078 251.168 126.079C251.234 126.08 251.744 126.36 252.301 126.7C253.125 127.203 253.314 127.391 253.314 127.711C253.314 127.987 253.223 128.12 253.012 128.153Z" fill="url(#paint6_linear)"/>
<path fill-rule="evenodd" clip-rule="evenodd" d="M211.409 119.685C211.261 119.843 211.138 120.232 211.135 120.551C211.131 120.87 211.016 123.058 210.878 125.414C210.74 127.77 210.577 132.037 210.515 134.897C210.394 140.593 210.476 141.362 211.227 141.563C211.713 141.693 213.238 141.237 214.004 140.733C214.681 140.287 214.758 139.926 214.121 140.184C213.88 140.281 213.383 140.361 213.016 140.361C211.968 140.361 211.906 140.112 211.937 135.987C211.965 132.221 212.12 129.681 212.699 123.523C213.088 119.383 213.091 119.407 212.136 119.402C211.884 119.4 211.557 119.528 211.409 119.685ZM174.719 122.596C170.513 123.844 169.212 129 172.428 131.674C172.93 132.091 174.235 132.924 175.329 133.526C178.521 135.281 179.507 136.443 179.507 138.447C179.507 140.078 178.716 141.342 177.198 142.138C176.267 142.627 175.7 142.754 174.453 142.754C172.09 142.754 170.529 141.189 170.884 139.174C170.982 138.615 170.953 138.539 170.642 138.539C169.533 138.539 168.764 139.673 169.066 140.867C169.413 142.24 170.962 143.307 173.07 143.626C176.218 144.101 179.437 142.497 180.653 139.846C181.038 139.008 181.123 138.575 181.124 137.45C181.127 134.982 180.103 133.733 176.421 131.712C175.176 131.029 173.849 130.174 173.471 129.811C171.19 127.618 172 124.112 174.95 123.413C176.278 123.099 177.625 123.51 178.138 124.387C178.264 124.601 178.376 125.186 178.388 125.687C178.409 126.572 178.424 126.598 178.897 126.561C179.165 126.54 179.565 126.341 179.787 126.119C180.313 125.593 180.343 124.394 179.848 123.723C179.011 122.589 176.559 122.05 174.719 122.596ZM184.833 124.093C184.699 124.366 184.502 125.673 184.012 129.561C183.927 130.23 183.857 130.336 183.5 130.336C183.032 130.336 181.901 130.799 181.901 130.99C181.901 131.059 182.316 131.07 182.824 131.015L183.747 130.913L183.657 134.954C183.557 139.47 183.664 140.264 184.486 141.141C184.955 141.64 185.067 141.674 185.992 141.603C186.662 141.551 187.363 141.33 188.122 140.932C189.221 140.355 189.65 139.852 188.869 140.054C188.657 140.109 188.147 140.245 187.735 140.355C186.722 140.627 185.924 140.342 185.54 139.572C185.187 138.864 185.057 136.142 185.232 133.156L185.354 131.077L187.088 131.026C188.58 130.981 188.83 130.93 188.879 130.655C188.931 130.368 188.762 130.336 187.214 130.336C185.687 130.336 185.492 130.3 185.492 130.017C185.493 129.645 186.102 125.238 186.273 124.366C186.389 123.774 186.389 123.774 185.69 123.774C185.198 123.774 184.944 123.868 184.833 124.093ZM233.053 124.093C232.918 124.366 232.722 125.673 232.231 129.561L232.133 130.336H229.759C227.973 130.336 227.385 130.279 227.385 130.108C227.386 129.983 227.539 128.773 227.726 127.419C228.175 124.177 228.186 124.321 227.491 124.321C226.836 124.321 226.533 124.619 226.435 125.359C226.176 127.322 225.846 130.013 225.846 130.16C225.846 130.257 225.651 130.336 225.413 130.336C225.174 130.336 224.694 130.478 224.344 130.651L223.708 130.966L224.68 131.024L225.651 131.082L225.552 135.046C225.441 139.48 225.6 140.532 226.5 141.288C227.148 141.834 228.489 141.706 229.995 140.955C231.101 140.403 231.583 139.838 230.762 140.057C230.55 140.114 230.024 140.257 229.592 140.376C228.667 140.63 228.06 140.402 227.493 139.585C227.066 138.969 226.938 136.798 227.125 133.342L227.248 131.065H229.613H231.978L231.878 135.037C231.792 138.5 231.817 139.131 232.074 139.956C232.489 141.287 233.02 141.693 234.227 141.601C235.35 141.515 237.473 140.53 237.473 140.095C237.473 139.837 237.412 139.838 236.832 140.101C236.479 140.261 235.831 140.405 235.392 140.422C234.439 140.458 233.809 139.946 233.541 138.917C233.358 138.214 233.345 134.493 233.519 132.45L233.626 131.192L235.083 131.23C236.758 131.274 237.131 131.17 237.131 130.661C237.131 130.316 237.039 130.299 235.464 130.361L233.797 130.427L233.853 129.242C233.884 128.591 234.057 127.126 234.237 125.989C234.418 124.851 234.566 123.887 234.566 123.847C234.566 123.806 234.261 123.774 233.888 123.774C233.416 123.774 233.162 123.871 233.053 124.093ZM193.656 129.805C191.892 130.248 190.45 131.512 190.45 132.615C190.45 133.539 190.91 133.915 191.904 133.802C192.382 133.748 192.389 133.719 192.087 133.096C191.683 132.263 191.752 131.655 192.318 131.051C192.741 130.601 192.954 130.518 193.695 130.518C195.56 130.518 196.378 131.675 196.15 133.992L196.047 135.045L195.001 135.163C192.664 135.428 190.917 136.245 190.197 137.409C188.56 140.059 190.897 142.793 193.37 141.121C194.212 140.552 194.885 139.772 195.459 138.698C195.942 137.798 196.079 137.805 195.922 138.721C195.853 139.122 196.093 139.741 196.093 139.741C196.093 139.741 196.615 141.017 197.126 141.339C197.78 141.752 198.619 141.712 199.511 141.227C200.26 140.82 200.768 140.141 200.092 140.451C199.427 140.756 198.654 140.766 198.236 140.473C197.497 139.957 197.378 139.061 197.597 135.658C197.733 133.54 197.739 132.365 197.617 131.794C197.237 130.023 195.754 129.278 193.656 129.805ZM207.122 129.86C206.457 130.169 205.448 131.368 204.924 132.471C204.697 132.951 204.26 134.186 203.954 135.216C203.648 136.247 203.367 137.057 203.329 137.017C203.292 136.977 203.357 135.493 203.474 133.719C203.72 129.978 203.696 129.873 202.569 129.894C201.506 129.914 199.855 130.465 199.855 130.8C199.855 131.005 199.97 131.041 200.322 130.947C201.074 130.746 201.754 130.802 201.919 131.08C202.124 131.425 202.116 133.703 201.895 137.873C201.795 139.763 201.751 141.35 201.798 141.4C201.845 141.45 202.189 141.436 202.562 141.369C203.216 141.251 203.243 141.218 203.353 140.394C203.571 138.766 204.096 136.957 204.313 136.451C204.313 136.414 204.313 136.451 204.363 136.263C204.414 136.075 204.786 134.931 205.009 134.256L205.446 132.906C205.446 132.906 205.735 132.455 206.29 131.99C206.803 131.56 207.871 131.484 208.417 131.84C208.715 132.034 208.804 132.015 209.013 131.714C209.405 131.15 209.318 130.412 208.809 129.985C208.293 129.552 207.853 129.52 207.122 129.86ZM219.644 129.805C218.618 130.063 217.762 130.608 217.001 131.487C214.275 134.64 214.566 139.818 217.552 141.292C219.21 142.11 221.55 141.414 222.789 139.736C223.279 139.072 223.014 138.758 222.45 139.334C221.816 139.981 220.867 140.363 219.909 140.355C218.296 140.343 217.019 138.782 216.835 136.596L216.745 135.531L218.602 135.213C220.816 134.834 222.443 134.077 222.951 133.189C223.756 131.78 223.014 130.175 221.385 129.803C220.429 129.584 220.525 129.584 219.644 129.805ZM242.038 129.86C238.2 130.992 236.386 137.583 239.139 140.394C240.061 141.336 240.725 141.637 241.877 141.637C243.093 141.637 244.271 141.069 245.234 140.017C246.023 139.156 245.926 138.65 245.112 139.382C243.649 140.696 241.734 140.713 240.602 139.42C240.083 138.827 239.581 137.532 239.445 136.439L239.332 135.523L240.839 135.304C243.932 134.853 245.79 133.744 245.958 132.25C246.165 130.418 244.202 129.221 242.038 129.86ZM220.844 130.798C221.05 130.952 221.306 131.39 221.413 131.771C221.656 132.633 221.317 133.454 220.5 133.984C219.93 134.353 217.972 134.893 217.2 134.893C216.768 134.893 216.751 134.858 216.857 134.209C217.045 133.06 217.933 131.315 218.539 130.901C219.198 130.452 220.313 130.402 220.844 130.798ZM243.642 131.051C244.361 131.818 244.349 132.899 243.613 133.633C243.036 134.207 241.843 134.653 240.396 134.834L239.473 134.95L239.57 134.177C239.714 133.034 240.539 131.407 241.217 130.928C242.068 130.328 243.008 130.376 243.642 131.051ZM195.922 136.084C195.922 137.785 194.008 140.179 192.648 140.179C191.841 140.179 191.449 139.698 191.435 138.688C191.412 137.1 192.331 136.166 194.249 135.825C195.805 135.549 195.922 135.567 195.922 136.084Z" fill="#2854A1"/>
<rect x="124.5" y="65.5" width="173" height="43" rx="3.5" fill="#2496ED" stroke="#2854A1" stroke-width="7"/>
<line x1="285.5" y1="77.5" x2="285.5" y2="95.5" stroke="#2854A1" stroke-width="7" stroke-linecap="round"/>
<line x1="275.5" y1="77.5" x2="275.5" y2="95.5" stroke="#2854A1" stroke-width="7" stroke-linecap="round"/>
<line x1="136.5" y1="77.5" x2="136.5" y2="95.5" stroke="#2854A1" stroke-width="7" stroke-linecap="round"/>
<line x1="146.58" y1="77.5" x2="146.58" y2="95.5" stroke="#2854A1" stroke-width="7" stroke-linecap="round"/>
<mask id="path-57-outside-1" maskUnits="userSpaceOnUse" x="160" y="76" width="102" height="22" fill="black">
<rect fill="white" x="160" y="76" width="102" height="22"/>
<path fill-rule="evenodd" clip-rule="evenodd" d="M167.898 78.3173C161.528 79.972 158.902 87.655 162.893 92.9637C166.479 97.7347 174.107 97.704 177.675 92.9047C182.911 85.8599 176.379 76.114 167.898 78.3173ZM245.999 79.2101C245.559 79.2674 245.086 79.3498 244.948 79.3935C244.702 79.4716 244.698 79.6287 244.698 87.3611V95.249H245.908H247.117V92.3197V89.3901H248.123C253.538 89.3901 256.033 87.7497 256.033 84.1889C256.033 80.244 252.299 78.3915 245.999 79.2101ZM186.833 79.286C186.786 79.3329 186.748 82.9436 186.748 87.31V95.249H187.958H189.167V91.5552V87.8618H192.415H195.663V86.9068V85.9514H192.415H189.167V83.5954V81.2391H192.861H196.555V80.2202V79.2013H191.736C189.086 79.2013 186.879 79.2394 186.833 79.286ZM233.946 79.5629C233.549 80.3309 232.146 83.5703 231.262 85.7605C230.004 88.8764 227.758 94.8835 227.758 95.1334C227.758 95.1969 228.296 95.249 228.954 95.249H230.149L230.759 93.4976C231.094 92.5344 231.414 91.6175 231.47 91.4598L231.573 91.1732H235.125H238.677L239.009 92.0966C239.191 92.6044 239.52 93.5217 239.739 94.1344L240.137 95.249H241.398C242.092 95.249 242.66 95.2031 242.66 95.1474C242.66 94.5529 238.236 83.4211 236.614 79.9335L236.273 79.2013H235.203C234.157 79.2013 234.129 79.2091 233.946 79.5629ZM258.708 87.225V95.249H259.854H261V87.225V79.2013H259.854H258.708V87.225ZM221.39 79.5935C221.075 79.6528 220.631 79.7345 220.403 79.7756L219.989 79.8495V85.8872C219.989 93.1757 220.044 93.5595 221.237 94.6373C222.333 95.6272 225.739 95.7777 227.085 94.8953C227.224 94.8037 227.092 93.9725 226.802 93.1158C226.761 92.9963 226.588 93.0197 226.102 93.2113C225.308 93.5246 223.848 93.5559 223.251 93.2728C222.391 92.8647 222.35 92.6663 222.307 88.6579L222.267 85.0599H224.503H226.739V84.1048V83.1495H224.514H222.289L222.253 81.3449C222.215 79.3782 222.242 79.4329 221.39 79.5935ZM172.613 85.6967C173.452 85.6967 174.136 85.7397 174.132 85.7921C174.128 85.8449 173.157 87.8077 171.974 90.1543L169.822 94.421L169.815 91.651L169.808 88.8807H168.234H166.66L167.923 86.4289C168.617 85.0807 169.598 83.1618 170.102 82.1651L171.018 80.3527L171.053 83.0247L171.087 85.6967H172.613ZM250.752 81.2508C252.677 81.6065 253.534 82.5241 253.534 84.2322C253.535 86.3569 252.311 87.1657 248.869 87.3155L247.117 87.3914V84.3364C247.117 82.6563 247.156 81.2433 247.202 81.1967C247.339 81.0596 249.932 81.0993 250.752 81.2508ZM235.714 83.3087C236.355 84.8661 237.947 89.0422 237.947 89.1657C237.947 89.2191 236.665 89.2628 235.097 89.2628H232.247L233.044 87.1182C233.981 84.5957 235.018 82.1306 235.142 82.1306C235.19 82.1306 235.447 82.6609 235.714 83.3087ZM199.866 83.0156C198.611 83.2462 198.194 83.4068 198.26 83.6338C198.294 83.7527 198.362 84.183 198.409 84.5898C198.466 85.069 198.548 85.31 198.643 85.2735C201.597 84.14 204.019 85.0442 204.174 87.3383L204.228 88.1523L203.862 88.0732C199.92 87.2214 197.061 88.7937 197.068 91.8103C197.075 95.0037 199.462 95.9894 205.357 95.2334L206.509 95.0858L206.457 90.6777C206.395 85.441 206.344 85.1527 205.285 84.1048C204.248 83.0778 201.992 82.6244 199.866 83.0156ZM211.868 83.0921C208.335 84.0433 208.143 88.3058 211.574 89.5911C214.175 90.5653 215.15 91.2666 215.15 92.165C215.15 93.4702 213.142 94.0008 210.756 93.3266C210.265 93.1881 209.74 93.0425 209.589 93.0028C209.341 92.9383 209.3 93.0047 209.166 93.6761C209.085 94.0858 208.991 94.5181 208.958 94.637C208.791 95.2223 212.591 95.7396 214.417 95.3803C216.497 94.9708 217.445 93.9226 217.439 92.037C217.433 90.0813 216.842 89.4986 213.465 88.1162C212.112 87.5624 211.678 87.2449 211.489 86.6726C210.997 85.1807 212.924 84.3775 215.398 85.0433C215.919 85.1836 216.385 85.2742 216.434 85.2446C216.586 85.1504 216.844 83.5195 216.726 83.4009C216.316 82.9912 213.021 82.7817 211.868 83.0921ZM203.798 89.852L204.196 89.9315V91.6907V93.4503L203.609 93.5383C200.783 93.9621 199.119 93.0771 199.333 91.264C199.466 90.1308 201.685 89.4292 203.798 89.852Z"/>
</mask>
<path fill-rule="evenodd" clip-rule="evenodd" d="M167.898 78.3173C161.528 79.972 158.902 87.655 162.893 92.9637C166.479 97.7347 174.107 97.704 177.675 92.9047C182.911 85.8599 176.379 76.114 167.898 78.3173ZM245.999 79.2101C245.559 79.2674 245.086 79.3498 244.948 79.3935C244.702 79.4716 244.698 79.6287 244.698 87.3611V95.249H245.908H247.117V92.3197V89.3901H248.123C253.538 89.3901 256.033 87.7497 256.033 84.1889C256.033 80.244 252.299 78.3915 245.999 79.2101ZM186.833 79.286C186.786 79.3329 186.748 82.9436 186.748 87.31V95.249H187.958H189.167V91.5552V87.8618H192.415H195.663V86.9068V85.9514H192.415H189.167V83.5954V81.2391H192.861H196.555V80.2202V79.2013H191.736C189.086 79.2013 186.879 79.2394 186.833 79.286ZM233.946 79.5629C233.549 80.3309 232.146 83.5703 231.262 85.7605C230.004 88.8764 227.758 94.8835 227.758 95.1334C227.758 95.1969 228.296 95.249 228.954 95.249H230.149L230.759 93.4976C231.094 92.5344 231.414 91.6175 231.47 91.4598L231.573 91.1732H235.125H238.677L239.009 92.0966C239.191 92.6044 239.52 93.5217 239.739 94.1344L240.137 95.249H241.398C242.092 95.249 242.66 95.2031 242.66 95.1474C242.66 94.5529 238.236 83.4211 236.614 79.9335L236.273 79.2013H235.203C234.157 79.2013 234.129 79.2091 233.946 79.5629ZM258.708 87.225V95.249H259.854H261V87.225V79.2013H259.854H258.708V87.225ZM221.39 79.5935C221.075 79.6528 220.631 79.7345 220.403 79.7756L219.989 79.8495V85.8872C219.989 93.1757 220.044 93.5595 221.237 94.6373C222.333 95.6272 225.739 95.7777 227.085 94.8953C227.224 94.8037 227.092 93.9725 226.802 93.1158C226.761 92.9963 226.588 93.0197 226.102 93.2113C225.308 93.5246 223.848 93.5559 223.251 93.2728C222.391 92.8647 222.35 92.6663 222.307 88.6579L222.267 85.0599H224.503H226.739V84.1048V83.1495H224.514H222.289L222.253 81.3449C222.215 79.3782 222.242 79.4329 221.39 79.5935ZM172.613 85.6967C173.452 85.6967 174.136 85.7397 174.132 85.7921C174.128 85.8449 173.157 87.8077 171.974 90.1543L169.822 94.421L169.815 91.651L169.808 88.8807H168.234H166.66L167.923 86.4289C168.617 85.0807 169.598 83.1618 170.102 82.1651L171.018 80.3527L171.053 83.0247L171.087 85.6967H172.613ZM250.752 81.2508C252.677 81.6065 253.534 82.5241 253.534 84.2322C253.535 86.3569 252.311 87.1657 248.869 87.3155L247.117 87.3914V84.3364C247.117 82.6563 247.156 81.2433 247.202 81.1967C247.339 81.0596 249.932 81.0993 250.752 81.2508ZM235.714 83.3087C236.355 84.8661 237.947 89.0422 237.947 89.1657C237.947 89.2191 236.665 89.2628 235.097 89.2628H232.247L233.044 87.1182C233.981 84.5957 235.018 82.1306 235.142 82.1306C235.19 82.1306 235.447 82.6609 235.714 83.3087ZM199.866 83.0156C198.611 83.2462 198.194 83.4068 198.26 83.6338C198.294 83.7527 198.362 84.183 198.409 84.5898C198.466 85.069 198.548 85.31 198.643 85.2735C201.597 84.14 204.019 85.0442 204.174 87.3383L204.228 88.1523L203.862 88.0732C199.92 87.2214 197.061 88.7937 197.068 91.8103C197.075 95.0037 199.462 95.9894 205.357 95.2334L206.509 95.0858L206.457 90.6777C206.395 85.441 206.344 85.1527 205.285 84.1048C204.248 83.0778 201.992 82.6244 199.866 83.0156ZM211.868 83.0921C208.335 84.0433 208.143 88.3058 211.574 89.5911C214.175 90.5653 215.15 91.2666 215.15 92.165C215.15 93.4702 213.142 94.0008 210.756 93.3266C210.265 93.1881 209.74 93.0425 209.589 93.0028C209.341 92.9383 209.3 93.0047 209.166 93.6761C209.085 94.0858 208.991 94.5181 208.958 94.637C208.791 95.2223 212.591 95.7396 214.417 95.3803C216.497 94.9708 217.445 93.9226 217.439 92.037C217.433 90.0813 216.842 89.4986 213.465 88.1162C212.112 87.5624 211.678 87.2449 211.489 86.6726C210.997 85.1807 212.924 84.3775 215.398 85.0433C215.919 85.1836 216.385 85.2742 216.434 85.2446C216.586 85.1504 216.844 83.5195 216.726 83.4009C216.316 82.9912 213.021 82.7817 211.868 83.0921ZM203.798 89.852L204.196 89.9315V91.6907V93.4503L203.609 93.5383C200.783 93.9621 199.119 93.0771 199.333 91.264C199.466 90.1308 201.685 89.4292 203.798 89.852Z" fill="#049889"/>
<path fill-rule="evenodd" clip-rule="evenodd" d="M167.898 78.3173C161.528 79.972 158.902 87.655 162.893 92.9637C166.479 97.7347 174.107 97.704 177.675 92.9047C182.911 85.8599 176.379 76.114 167.898 78.3173ZM245.999 79.2101C245.559 79.2674 245.086 79.3498 244.948 79.3935C244.702 79.4716 244.698 79.6287 244.698 87.3611V95.249H245.908H247.117V92.3197V89.3901H248.123C253.538 89.3901 256.033 87.7497 256.033 84.1889C256.033 80.244 252.299 78.3915 245.999 79.2101ZM186.833 79.286C186.786 79.3329 186.748 82.9436 186.748 87.31V95.249H187.958H189.167V91.5552V87.8618H192.415H195.663V86.9068V85.9514H192.415H189.167V83.5954V81.2391H192.861H196.555V80.2202V79.2013H191.736C189.086 79.2013 186.879 79.2394 186.833 79.286ZM233.946 79.5629C233.549 80.3309 232.146 83.5703 231.262 85.7605C230.004 88.8764 227.758 94.8835 227.758 95.1334C227.758 95.1969 228.296 95.249 228.954 95.249H230.149L230.759 93.4976C231.094 92.5344 231.414 91.6175 231.47 91.4598L231.573 91.1732H235.125H238.677L239.009 92.0966C239.191 92.6044 239.52 93.5217 239.739 94.1344L240.137 95.249H241.398C242.092 95.249 242.66 95.2031 242.66 95.1474C242.66 94.5529 238.236 83.4211 236.614 79.9335L236.273 79.2013H235.203C234.157 79.2013 234.129 79.2091 233.946 79.5629ZM258.708 87.225V95.249H259.854H261V87.225V79.2013H259.854H258.708V87.225ZM221.39 79.5935C221.075 79.6528 220.631 79.7345 220.403 79.7756L219.989 79.8495V85.8872C219.989 93.1757 220.044 93.5595 221.237 94.6373C222.333 95.6272 225.739 95.7777 227.085 94.8953C227.224 94.8037 227.092 93.9725 226.802 93.1158C226.761 92.9963 226.588 93.0197 226.102 93.2113C225.308 93.5246 223.848 93.5559 223.251 93.2728C222.391 92.8647 222.35 92.6663 222.307 88.6579L222.267 85.0599H224.503H226.739V84.1048V83.1495H224.514H222.289L222.253 81.3449C222.215 79.3782 222.242 79.4329 221.39 79.5935ZM172.613 85.6967C173.452 85.6967 174.136 85.7397 174.132 85.7921C174.128 85.8449 173.157 87.8077 171.974 90.1543L169.822 94.421L169.815 91.651L169.808 88.8807H168.234H166.66L167.923 86.4289C168.617 85.0807 169.598 83.1618 170.102 82.1651L171.018 80.3527L171.053 83.0247L171.087 85.6967H172.613ZM250.752 81.2508C252.677 81.6065 253.534 82.5241 253.534 84.2322C253.535 86.3569 252.311 87.1657 248.869 87.3155L247.117 87.3914V84.3364C247.117 82.6563 247.156 81.2433 247.202 81.1967C247.339 81.0596 249.932 81.0993 250.752 81.2508ZM235.714 83.3087C236.355 84.8661 237.947 89.0422 237.947 89.1657C237.947 89.2191 236.665 89.2628 235.097 89.2628H232.247L233.044 87.1182C233.981 84.5957 235.018 82.1306 235.142 82.1306C235.19 82.1306 235.447 82.6609 235.714 83.3087ZM199.866 83.0156C198.611 83.2462 198.194 83.4068 198.26 83.6338C198.294 83.7527 198.362 84.183 198.409 84.5898C198.466 85.069 198.548 85.31 198.643 85.2735C201.597 84.14 204.019 85.0442 204.174 87.3383L204.228 88.1523L203.862 88.0732C199.92 87.2214 197.061 88.7937 197.068 91.8103C197.075 95.0037 199.462 95.9894 205.357 95.2334L206.509 95.0858L206.457 90.6777C206.395 85.441 206.344 85.1527 205.285 84.1048C204.248 83.0778 201.992 82.6244 199.866 83.0156ZM211.868 83.0921C208.335 84.0433 208.143 88.3058 211.574 89.5911C214.175 90.5653 215.15 91.2666 215.15 92.165C215.15 93.4702 213.142 94.0008 210.756 93.3266C210.265 93.1881 209.74 93.0425 209.589 93.0028C209.341 92.9383 209.3 93.0047 209.166 93.6761C209.085 94.0858 208.991 94.5181 208.958 94.637C208.791 95.2223 212.591 95.7396 214.417 95.3803C216.497 94.9708 217.445 93.9226 217.439 92.037C217.433 90.0813 216.842 89.4986 213.465 88.1162C212.112 87.5624 211.678 87.2449 211.489 86.6726C210.997 85.1807 212.924 84.3775 215.398 85.0433C215.919 85.1836 216.385 85.2742 216.434 85.2446C216.586 85.1504 216.844 83.5195 216.726 83.4009C216.316 82.9912 213.021 82.7817 211.868 83.0921ZM203.798 89.852L204.196 89.9315V91.6907V93.4503L203.609 93.5383C200.783 93.9621 199.119 93.0771 199.333 91.264C199.466 90.1308 201.685 89.4292 203.798 89.852Z" stroke="#2854A1" stroke-width="2" mask="url(#path-57-outside-1)"/>
<defs>
<linearGradient id="paint0_linear" x1="153" y1="201.823" x2="169.233" y2="215.656" gradientUnits="userSpaceOnUse">
<stop stop-color="#2854A1"/>
<stop offset="1" stop-color="#306998"/>
</linearGradient>
<linearGradient id="paint1_linear" x1="171.361" y1="227.435" x2="165.537" y2="219.274" gradientUnits="userSpaceOnUse">
<stop stop-color="#FFD43B"/>
<stop offset="1" stop-color="#FFE873"/>
</linearGradient>
<linearGradient id="paint2_linear" x1="247.984" y1="115.35" x2="251.36" y2="117.376" gradientUnits="userSpaceOnUse">
<stop stop-color="#FFC74F"/>
<stop offset="1" stop-color="#FFDF61"/>
</linearGradient>
<linearGradient id="paint3_linear" x1="247.984" y1="115.35" x2="251.36" y2="117.376" gradientUnits="userSpaceOnUse">
<stop stop-color="#FFC74F"/>
<stop offset="1" stop-color="#FFDF61"/>
</linearGradient>
<linearGradient id="paint4_linear" x1="247.984" y1="115.35" x2="251.36" y2="117.376" gradientUnits="userSpaceOnUse">
<stop stop-color="#FFC74F"/>
<stop offset="1" stop-color="#FFDF61"/>
</linearGradient>
<linearGradient id="paint5_linear" x1="247.984" y1="115.35" x2="251.36" y2="117.376" gradientUnits="userSpaceOnUse">
<stop stop-color="#FFC74F"/>
<stop offset="1" stop-color="#FFDF61"/>
</linearGradient>
<linearGradient id="paint6_linear" x1="247.984" y1="115.35" x2="251.36" y2="117.376" gradientUnits="userSpaceOnUse">
<stop stop-color="#FFC74F"/>
<stop offset="1" stop-color="#FFDF61"/>
</linearGradient>
</defs>
</svg>
